<svg xmlns="http://www.w3.org/2000/svg" xmlns:xlink="http://www.w3.org/1999/xlink" preserveAspectRatio="xMidYMid meet" version="1.0" viewBox="-1.4 -0.0 495.3 495.2" zoomAndPan="magnify" style="fill: rgb(0, 0, 0);" original_string_length="11788" width="213.32253462232177px" height="213.32253462232177px"><g data-name="Layer 28" id="__id0_se5738bk09"><path d="M142.13,20.28c-5.33-2.34-9.9-5.52-14.68-8.33a38,38,0,0,0-6.89-3.24,22.53,22.53,0,0,0-9-1.41,11.09,11.09,0,0,0-7.09,2.92c-2.31,2.22-2.19,5.06.24,7.15a6.7,6.7,0,0,0,1,.71A17,17,0,0,0,114,20.56q13.16,0,26.29.07A2.71,2.71,0,0,0,142.13,20.28ZM316,38.42c-4,0-6.4-3.5-5.92-7.25a4.59,4.59,0,0,1,4.67-3.66,6.35,6.35,0,0,1,5.88,7A4.53,4.53,0,0,1,316,38.42Zm-185-12.5h-2.14c-22.17-.08-44.35-.35-66.52-.15-9.91.09-19.81-.54-29.72-.29-2.42.06-4.81.25-7.2.54A37.43,37.43,0,0,1,9.63,25a18.17,18.17,0,0,1-5.91-2.93c-5.09-3.93-4.95-10.19.38-13.8C8,5.63,12.21,5.37,16.6,6.72A19.13,19.13,0,0,1,22,9.43c1.21.85,2.41,1.72,3.53,2.67a36.17,36.17,0,0,0,15.93,7.7,15.4,15.4,0,0,0,3.38.42l54.86.29c.51,0,1,0,1.51-.06,0-.72-.45-.93-.73-1.27a8.56,8.56,0,0,1,.17-11.4A15,15,0,0,1,110,2.86a25.48,25.48,0,0,1,12,1.38,43,43,0,0,1,8.71,4.09c2.54,1.51,5,3.05,7.58,4.56,6.49,3.89,13.6,5.82,21,6.88a152.54,152.54,0,0,0,21,1.13q48,.13,96.07.4a13.48,13.48,0,0,1,1.8.06,2.51,2.51,0,0,1,2.35,2.54,2.56,2.56,0,0,1-2.27,2.64,13.33,13.33,0,0,1-2,.06c-14.34-.08-28.68-.13-43-.24-5,0-10.05.26-15.07.37l-2.61.08c-8,.1-16.06.18-24.09.33a75.37,75.37,0,0,0-12,1,27.51,27.51,0,0,0-9.51,3.63c-2.82,1.69-5.47,3.62-8.12,5.56A78.6,78.6,0,0,1,155,42a32,32,0,0,1-19.09,4.31,16.15,16.15,0,0,1-10.19-4.22,7.46,7.46,0,0,1-1.56-9.19,13,13,0,0,1,4-4.66c.91-.68,1.87-1.28,2.8-1.91Zm328.68,12.4a11.9,11.9,0,0,1-5.13,9.54,17.15,17.15,0,0,1-4.43,2.31,84.27,84.27,0,0,0-8.5,3.56,6.81,6.81,0,0,1-.74.31c-.31.1-.65.24-.92-.09a.93.93,0,0,1,0-1,7.44,7.44,0,0,1,.41-.91,71.89,71.89,0,0,0,3.19-7.58A18.62,18.62,0,0,1,446.31,39a11.67,11.67,0,0,1,8.49-4.74C457.74,34.07,459.85,35.65,459.61,38.32ZM333.31,58.55c0,4-3.53,6.64-6.94,5.56a4.1,4.1,0,0,1-3-4.82c.94-4.46,4-5.53,7.84-4.15A3.36,3.36,0,0,1,333.31,58.55ZM428,66a79.9,79.9,0,0,1,17.34-8.44,53.64,53.64,0,0,0,5.41-2.11c7.37-3.59,12.52-9,14.41-17.23.82-3.54,1.29-7.12,1.86-10.68a.73.73,0,0,0-.32-.76c-3.65.51-7.35,1-11,1.86a24.12,24.12,0,0,0-13.42,8.29,32.54,32.54,0,0,0-5.64,10.56,80.39,80.39,0,0,1-8.28,17.57A7.94,7.94,0,0,0,428,66Zm-23.31,0c2.84.08,4.46,1.54,4.44,4a4.41,4.41,0,0,1-8.8-.32A4,4,0,0,1,404.73,66Zm-53.39,3c-3.73,1-6.69,2.84-9.77,4.28a1.84,1.84,0,0,1,0-2,7,7,0,0,1,.93-1.54c5-5.76,11.22-8.25,18.79-6.93A9.55,9.55,0,0,1,367,66.25a7.53,7.53,0,0,1-.57,10.66,13.89,13.89,0,0,1-9.35,3.59,8.33,8.33,0,0,1-3.66-.92,6.39,6.39,0,0,1-3.08-8.65C350.6,70.44,350.87,70,351.34,69.08ZM427.8,89.17c.05,2.5-1.47,4.25-3.75,4.32a4.15,4.15,0,0,1-4.15-4.26,4.08,4.08,0,0,1,3.89-4.46C426.36,84.74,427.74,86.26,427.8,89.17Zm-18.62,4.65a15.78,15.78,0,0,0-3.2,2.56,53.65,53.65,0,0,0-8.24,10.6c-4.23,6.77-10,11.65-17.69,14a39.16,39.16,0,0,0-9.57,4.57c-.45.29-.91.55-1.39.8a.89.89,0,0,1-1.25-.18c-.38-.42-.67-.83-.39-1.41a7.43,7.43,0,0,1,.47-.88,45.24,45.24,0,0,0,5.35-11.2A30.2,30.2,0,0,1,385.53,97c1.72-1.16,3.49-2.25,5.19-3.44a40.39,40.39,0,0,0,8.09-7.18c.45-.52,1.06-1,1.09-1.83a21.35,21.35,0,0,1-4-1.44,1.2,1.2,0,0,0-1.85.41,30.07,30.07,0,0,1-7.59,6.81c-2.88,1.95-5.78,3.88-8.64,5.87a28.33,28.33,0,0,0-5.39,4.49c-5.58,6.4-9.87,13.49-11.48,22a68.27,68.27,0,0,1-2.26,10c-.45,1.29-1,2.57-1.47,3.87.24,0,.39.11.48.06a41.64,41.64,0,0,1,11.15-3.2c13.35-2.38,23.89-9,31.11-20.65.25-.4.51-.78.77-1.17,2.91-4.34,5.62-8.84,9.94-12,.33-.25.61-.54.35-1A31.53,31.53,0,0,1,409.18,93.82Zm15.24,49c-.58.29-1,.54-1.53.76a6.43,6.43,0,0,1-8.63-3.19,9.57,9.57,0,0,1-.11-8,28.5,28.5,0,0,1,1.54-3.26,7.76,7.76,0,0,1,12.45-1.8,10.51,10.51,0,0,1,3.18,6.76,19.65,19.65,0,0,1-6.49,16.76,6.53,6.53,0,0,1-3.1,1.77c-.4.09-.82.16-1.08-.25s.07-.63.23-.91a53.22,53.22,0,0,0,3.13-6.5A3,3,0,0,0,424.42,142.78Zm9.5,27.77a4.27,4.27,0,0,1-4.37-4.45,5.45,5.45,0,0,1,5.37-5.57c2.85-.05,4.42,1.79,4.42,5.17C439.35,168.21,436.75,170.53,433.92,170.55Zm26.16,2.7a6.43,6.43,0,0,1,6.05,4.45,4.68,4.68,0,0,1-5.35,6.1c-3.28-.65-5.43-3-5.34-6A4.5,4.5,0,0,1,460.08,173.25ZM392.34,59.93c.68-.23,1.1-.88,1.66-1.33a12.86,12.86,0,0,1,18.06,1.45,6.62,6.62,0,0,1,1.78,3.75c0,.51.12,1.18-.47,1.41s-.72-.47-1-.78c-2.92-3-6.38-4.45-10.54-3.26a9.69,9.69,0,0,0-6.48,10.75A6.71,6.71,0,0,0,400,77.27a13.3,13.3,0,0,0,7.92.19c2.33-.61,4.6-1.45,6.9-2.15A4.2,4.2,0,0,0,416.55,74a61.56,61.56,0,0,0,10-14c2.9-5.55,4.76-11.5,6.83-17.37a.49.49,0,0,0-.14-.61c-.32-.21-.69.06-1.06.14A20,20,0,0,1,419,40.67c-4.87-2.34-7.74-6.12-7.61-11.72,0-1.18-.51-1.35-1.41-1.42-3.87-.28-7.74-.59-11.62-.85-8.42-.56-16.85-1-25.23-2.07-1-.13-2-.31-3-.53-.44-.09-1-.24-1-.84,0-.4.52-.57.92-.63.86-.15,1.72-.32,2.58-.39a308.57,308.57,0,0,1,39.76-.84,5.13,5.13,0,0,0,3.67-1.11,9.54,9.54,0,0,1,8.91-1.71A6.31,6.31,0,0,1,429.58,23a3.47,3.47,0,0,1-.85,3.54,1.44,1.44,0,0,1-1.47.43c-.62-.19-.41-.69-.45-1.15a2.85,2.85,0,0,0-2.57-2.4,4.67,4.67,0,0,0-4.94,2.61c-.4.9-1.2,1.58-1.21,2.71a5.51,5.51,0,0,0,3.51,5.39,12.8,12.8,0,0,0,12.32-.53,12.49,12.49,0,0,0,3-2.34c4.66-5.13,10.82-7.24,17.32-8.62,5.07-1.07,10.25-1.19,15.39-1.57q3.33-.26,3.12,3.14c-.49,7.89-.86,15.79-3.85,23.28a23.29,23.29,0,0,1-4.15,7c-1.21,1.34-2.47,2.65-3.59,4.07-3,3.8-3.37,8-1.94,12.55A7.54,7.54,0,0,0,460.82,74a4.83,4.83,0,0,0,6.31,1,5.38,5.38,0,0,0,2.71-2.24,4.91,4.91,0,0,0,.58-2.91,2.7,2.7,0,0,0-2.65-2.68c-1-.16-1.22-.65-.78-1.52a3.1,3.1,0,0,1,3.3-1.38,6,6,0,0,1,4.84,4,9.22,9.22,0,0,1,0,6.68,6.63,6.63,0,0,1-1.4,2.65,4.82,4.82,0,0,0-1.2,4.21c.5,6.22.32,12.46.2,18.69-.15,7-.39,14.06-1.11,21.07a8.48,8.48,0,0,1-.57,2.74c-.21.46-.66.48-.94,0a4.82,4.82,0,0,1-.57-1.9c-.75-5-1.16-10-1.53-15-.58-7.75-1.1-15.5-1.65-23.26-.13-1.68-.14-1.7-1.68-1.71-5,0-8.55-2.43-10.93-6.64a20.2,20.2,0,0,1-2.16-13.43c.1-.64.5-1.27.12-2-10.71,3.25-21,7.35-29.61,14.77-2.07,1.79-3.91,3.63-4.36,6.49a21.38,21.38,0,0,1-1,3.06,16.2,16.2,0,0,0-.64,6.95c.6,5.13,4.61,7.92,9.62,6.64,3.56-.92,6.21-3,7.11-6.66s-.34-7-2.91-9.77a5.92,5.92,0,0,0-.45-.41c-.31-.31-1-.46-.82-1S429.52,80,430,80a6.11,6.11,0,0,1,3.6,1.62,12.82,12.82,0,0,1,1.79,18c-.49.63-1,1.22-1.52,1.8a.77.77,0,0,0,.59.55,33,33,0,0,1,15,11.07c8.13,10.2,12.11,21.81,11.2,34.93a42.92,42.92,0,0,1-2.06,10.22,2.15,2.15,0,0,0-.24,1.17c.28.39.71.24,1.09.26a13.48,13.48,0,0,1,12.84,13.23,5.94,5.94,0,0,1-1.38,4.24c-.66-.27-.49-.8-.56-1.24a14.29,14.29,0,0,0-5.95-9.85,8.85,8.85,0,0,0-3.09-1.41,5.91,5.91,0,0,0-5.61,1.41,11.89,11.89,0,0,0-3.86,7.52,20.76,20.76,0,0,0,1,9.12,31.79,31.79,0,0,0,13.48,17.2,8.8,8.8,0,0,1,2.12,1.51c.62.75.47,1.37-.43,1.72a4.53,4.53,0,0,1-2,.22,12.87,12.87,0,0,1-6.91-2.46,29,29,0,0,1-8.94-10.94,4.12,4.12,0,0,0-1-1.72,4.65,4.65,0,0,0-.52,2.13,29.7,29.7,0,0,1-4.5,11.73,17,17,0,0,1-8.21,6.83,12,12,0,0,1-15.82-14.55A10,10,0,0,1,430.39,187a7.59,7.59,0,0,1,4.38,1.81c2.83,2.37,2.86,6.84-1.22,9.24-1.12.65-2,.17-2.13-1.12-.08-.72.06-1.47.05-2.2,0-1.81-1.16-2.73-2.89-2.26a4.92,4.92,0,0,0-3.58,3.73,6.88,6.88,0,0,0,8.31,8.27,11.56,11.56,0,0,0,6.16-4.27,27.37,27.37,0,0,0,4.78-9.89,33.19,33.19,0,0,0,1-13.13c-.74-.08-1.21.48-1.77.79a23.25,23.25,0,0,1-7.49,2.77c-8.52,1.42-14.66-4.26-13.79-12.89a18,18,0,0,1,4.41-10.16,7.94,7.94,0,0,1,.69-.73c.29-.25.62-.62,1-.29s.19.62.09.94c-.36,1.15-.74,2.3-1.08,3.45a17.78,17.78,0,0,0-.79,8.71c.84,4.21,3.55,6.22,7.77,5.71a16.2,16.2,0,0,0,7.69-3.26,28.59,28.59,0,0,0,9.84-13.42,39.79,39.79,0,0,0-.13-28.7,39.7,39.7,0,0,0-12.23-17.62,25.44,25.44,0,0,0-4.3-2.84,28.8,28.8,0,0,1,1.1,3.43,14.36,14.36,0,0,1,.19,1.59,1.56,1.56,0,0,1-.71,1.56,1.45,1.45,0,0,1-1.66-.36c-.76-.65-1.5-1.33-2.21-2a18.87,18.87,0,0,0-10.13-5.38,8,8,0,0,0-7.58,2.14A25.59,25.59,0,0,0,412,112.9a79.94,79.94,0,0,0-9,12.85,58.13,58.13,0,0,0-6.93,23.53,24,24,0,0,0,1.53,10.26,11.44,11.44,0,0,0,2.88,4.54,3.86,3.86,0,0,0,5.14.57,9.36,9.36,0,0,0,4.51-6.59,43.21,43.21,0,0,0,.1-10.23,5.1,5.1,0,0,1,0-2.13c.74-.11.88.41,1.06.8,2.52,5.53,3.41,11.33,1.81,17.23-2.13,7.91-9.93,10.69-16.83,6.22a17.64,17.64,0,0,1-6.3-7.41,28.71,28.71,0,0,1-2.29-16.29,51.49,51.49,0,0,1,5-16.27c.23-.48.45-1,.67-1.46a.6.6,0,0,0,0-.19c-.16-.25-.35-.09-.49,0-6.7,5.2-14.37,8.19-22.56,10.06q-4.31,1-8.53,2.3a51.19,51.19,0,0,0-12.94,6.35c-1.12.74-2.27,1.43-3.41,2.13a.57.57,0,0,1-.73,0c-.26-.23-.12-.5,0-.72.37-.64.73-1.28,1.16-1.88a59.61,59.61,0,0,0,9.51-22.4,59.9,59.9,0,0,1,7.32-19c1-1.56,2.06-3,3.32-4.7a5.45,5.45,0,0,0-2.13.8,50.14,50.14,0,0,1-19.07,5.15,26.92,26.92,0,0,1-14.38-3,17.15,17.15,0,0,1-6.61-6,11.91,11.91,0,0,1-1.89-7.46,9.34,9.34,0,0,1,3.79-7,13.58,13.58,0,0,1,6.83-2.71,27.86,27.86,0,0,1,14,1.94,3.12,3.12,0,0,1,1.85,1.28,2.86,2.86,0,0,1-2.11.25,53.79,53.79,0,0,0-9.83,0,9.67,9.67,0,0,0-7,4.27c-1.49,2.12-1.26,4,.61,5.75a15.36,15.36,0,0,0,8.11,3.7c5.19,1,10.27.23,15.33-.93,11-2.52,20.23-8.31,28.68-15.54,3.2-2.74,4.1-6,3-10.1a19.8,19.8,0,0,0-5.35-9.05,11,11,0,0,1-2-2.26c-.61-1.06-.25-1.83,1-2a9.7,9.7,0,0,1,5.1,1.17,1.94,1.94,0,0,0-.53-1.52,31.82,31.82,0,0,0-7.71-8.4c-8.35-6.32-17.73-9.63-28.26-9.22a35.52,35.52,0,0,0-20.07,6.76,23.52,23.52,0,0,0-7.43,8.57A13.26,13.26,0,0,0,318.34,61a5.92,5.92,0,0,0,3.93,5.76,12.94,12.94,0,0,0,6.92.63,33.61,33.61,0,0,0,6-1.6c.65-.22,1.59-.8,2,0S336.57,67,336,67.44a17.67,17.67,0,0,1-12.42,4.29A10.81,10.81,0,0,1,313,59.89a21.13,21.13,0,0,1,2.81-9.14,5.71,5.71,0,0,0,1-1.92.71.71,0,0,0-.67-.4,35.07,35.07,0,0,0-19.41,4,15.4,15.4,0,0,0-6.17,5.62,7.42,7.42,0,0,0-1,6A6.88,6.88,0,0,0,298,68.8a4.86,4.86,0,0,0,3.42-3.38c.41-1.39-.09-3.25-2.28-3.05a10.21,10.21,0,0,1-2.21,0c-1.19-.13-1.67-.95-1.1-2,2.17-3.83,6.45-4.4,9.06-1.56a7.81,7.81,0,0,1,1.61,8.24c-1.74,5.25-7.52,8.2-13.18,6.78a12,12,0,0,1-8.24-16.25,17.4,17.4,0,0,1,6.48-7.76,30,30,0,0,1,12.66-4.79c.45-.07.95,0,1.43-.42-.34-.51-.94-.63-1.43-.87a30.77,30.77,0,0,1-9.92-7.41c-2.24-2.61-3.79-5.51-3.71-9.08a3.66,3.66,0,0,1,.23-1.57c.37-.78.91-.92,1.6-.39a7.5,7.5,0,0,1,1.53,2.1,31.52,31.52,0,0,0,18.13,13.82,17.94,17.94,0,0,0,10.49.23,11.71,11.71,0,0,0,4.94-3,6.11,6.11,0,0,0,1.42-7,10.82,10.82,0,0,0-3.72-4.9,14.32,14.32,0,0,0-7.87-3.22c-.19,0-.4,0-.5-.48a5.51,5.51,0,0,1,4.28-1.34,13.36,13.36,0,0,1,13.09,13.15,5.7,5.7,0,0,0,.06.58c.55.42,1,0,1.51-.1,18.41-5.29,34.37-.67,48.22,12.1a29,29,0,0,1,7.79,11.8C391.86,59.4,391.91,59.76,392.34,59.93ZM337.67.82q55.68.29,111.36.57,18.8.09,37.59.21a5.58,5.58,0,0,1,3.66,1.6c2,1.57,2,3.4,2,5.53,0,9,.09,18.09.15,27.14q.65,122,1.3,244l.15,24.52a8.42,8.42,0,0,1-.15,2.4,2.59,2.59,0,0,1-5,.13,6.66,6.66,0,0,1-.22-2.39q-.18-33-.37-65.93-.63-114.57-1.25-229.15c0-2.64.19-2.5-2.53-2.51L396.5,6.51,189.06,5.34a10.81,10.81,0,0,1-1.8-.09,2.66,2.66,0,0,1-2.21-2.51A2.61,2.61,0,0,1,187.32.09,17.47,17.47,0,0,1,189.93,0L337.67.8ZM473.3,352a3.53,3.53,0,0,0-.1.55c0,9.23,0,18.46.1,27.69a15.68,15.68,0,0,0,2.46,8c2.36,3.86,6.1,3.94,8.73.26.19-.27.38-.55.55-.84a13.34,13.34,0,0,0,1.52-7.56,29.2,29.2,0,0,0-3.92-12.32C479.71,362.42,476.08,357.5,473.3,352Zm.21,40.76a5.58,5.58,0,0,0-.14,2.15c.07,17.63.12,35.25.25,52.87.05,6.5,2.35,12.31,5.92,17.64,1.19,1.78,2.6,3.4,3.9,5.11,2.29,3,4.08,6.3,4.43,10.18a13.33,13.33,0,0,1-2.43,9.32c-3.58,5-9.6,5.14-13.45.37-2.38-2.95-3.43-6.48-4.05-10.15a42.22,42.22,0,0,1,.15-13.6,16.79,16.79,0,0,0,.24-3c-.1-7.64.18-15.28-.36-22.91-.2-2.87.22-5.75.21-8.62,0-22.78-.16-45.56-.27-68.34,0-.27,0-.53,0-.89-.69.06-.79.67-1,1.06a17.06,17.06,0,0,1-4.23,4.8c-4.27,3.13-8.79,2.47-11.92-1.81a18,18,0,0,1-3.25-10,32.49,32.49,0,0,1,4.65-18.44c1.23-2.08,2.66-4,4.06-6,1.75-2.46,3.48-4.92,5.19-7.41A29.12,29.12,0,0,0,466.26,311c.2-2.19.37-4.41.41-6.61.18-8.91.17-17.82.47-26.72.66-20,.05-40.06.12-60.09a12.34,12.34,0,0,1,.11-2.2,2.58,2.58,0,0,1,5.12.05,14.79,14.79,0,0,1,.12,2.4q.24,52.47.49,104.93a86.66,86.66,0,0,0,2.68,20.27,47.69,47.69,0,0,0,5.55,13.09c1.66,2.75,3.36,5.49,5,8.27a36.26,36.26,0,0,1,4.84,14.16,18.24,18.24,0,0,1-2,10.9,12.42,12.42,0,0,1-3.94,4.49,8.55,8.55,0,0,1-10.14-.23C474.59,393.41,474.29,392.81,473.51,392.75Z" style="fill: rgb(202, 169, 113);"/></g></svg>