<svg version="1.1" id="Layer_1" xmlns="http://www.w3.org/2000/svg" xmlns:xlink="http://www.w3.org/1999/xlink" x="0px" y="0px"
	 width="100%" viewBox="0 0 512 512" enable-background="new 0 0 512 512" xml:space="preserve">
<path fill="none" opacity="1.000000" stroke="none" 
	d="
M513.000000,190.000000 
	C513.000000,297.973755 513.000000,405.447510 513.000000,512.960632 
	C342.401245,512.960632 171.802460,512.960632 1.101843,512.960632 
	C1.101843,342.442932 1.101843,171.885803 1.101843,1.164328 
	C171.666534,1.164328 342.333252,1.164328 513.000000,1.164328 
	C513.000000,63.864170 513.000000,126.682083 513.000000,190.000000 
M383.996307,277.482056 
	C384.329010,260.199341 384.523804,242.912582 385.028717,225.634903 
	C385.687469,203.093323 379.715973,181.414246 376.467712,159.401291 
	C374.377472,145.236069 376.012909,132.574753 385.149567,121.239082 
	C387.943756,117.772346 390.683746,114.217064 393.025604,110.440094 
	C397.734039,102.846359 401.467743,95.198700 401.195740,85.556877 
	C400.566284,63.244087 401.001831,40.901436 400.991852,18.570902 
	C400.988220,10.385700 398.618011,8.015085 390.240051,8.013739 
	C299.751373,7.999196 209.262695,8.000270 118.774025,8.012867 
	C111.198990,8.013922 108.018623,11.263030 108.012123,18.946419 
	C107.993248,41.276939 108.221024,63.610817 107.877258,85.936066 
	C107.769829,92.912773 109.439438,99.035515 112.990646,104.779739 
	C115.405441,108.685768 117.854401,112.624092 120.753242,116.167412 
	C129.300354,126.614746 135.320038,138.030121 133.893967,151.944107 
	C132.937195,161.279343 131.068970,170.522003 129.582840,179.801956 
	C127.415741,193.334167 124.464767,206.715378 124.906204,220.615891 
	C125.608238,242.722763 125.612320,264.851074 126.045898,286.967682 
	C126.154953,292.530731 125.779884,297.771759 122.781288,302.754211 
	C120.493515,306.555573 118.850838,310.769470 117.143639,314.891968 
	C107.333656,338.580627 99.554306,362.904572 94.477264,388.062500 
	C89.822922,411.125824 86.356720,434.331177 87.163651,457.941040 
	C87.249794,460.461548 88.906403,463.590942 90.844460,465.276672 
	C102.246292,475.193939 115.985130,480.969025 129.980591,486.042816 
	C165.250824,498.829529 201.891998,503.019440 239.173279,503.006042 
	C244.292984,503.004211 247.182144,500.631805 248.050491,495.557434 
	C250.100739,483.576385 252.246964,471.611816 254.451447,459.089264 
	C255.087234,460.419525 255.737946,461.254303 255.885635,462.170197 
	C257.643921,473.073547 259.350708,483.985413 261.019806,494.902863 
	C261.789246,499.935730 264.995880,503.187958 269.952301,502.937378 
	C287.481598,502.051208 305.086914,501.702209 322.498688,499.710144 
	C342.832184,497.383820 362.705200,492.468384 381.936096,485.155029 
	C394.667877,480.313202 406.712738,474.245178 417.861176,466.453491 
	C421.237823,464.093567 423.539795,460.912415 423.022919,456.335876 
	C422.559357,452.231140 422.434540,448.088684 421.992432,443.980927 
	C420.369171,428.898865 419.365692,413.708984 416.866943,398.770752 
	C411.508545,366.736542 402.066345,335.873901 388.239685,306.397095 
	C386.060883,301.752136 384.068726,296.808746 383.256104,291.798065 
	C382.560516,287.509308 383.679688,282.926178 383.996307,277.482056 
z"/>
<path fill="#49506A" opacity="1.000000" stroke="none" 
	d="
M383.996277,277.977661 
	C383.679688,282.926178 382.560516,287.509308 383.256104,291.798065 
	C384.068726,296.808746 386.060883,301.752136 388.239685,306.397095 
	C402.066345,335.873901 411.508545,366.736542 416.866943,398.770752 
	C419.365692,413.708984 420.369171,428.898865 421.992432,443.980927 
	C422.434540,448.088684 422.559357,452.231140 423.022919,456.335876 
	C423.539795,460.912415 421.237823,464.093567 417.861176,466.453491 
	C406.712738,474.245178 394.667877,480.313202 381.936096,485.155029 
	C362.705200,492.468384 342.832184,497.383820 322.498688,499.710144 
	C305.086914,501.702209 287.481598,502.051208 269.952301,502.937378 
	C264.995880,503.187958 261.789246,499.935730 261.019806,494.902863 
	C259.350708,483.985413 257.643921,473.073547 255.885635,462.170197 
	C255.737946,461.254303 255.087234,460.419525 254.451447,459.089264 
	C252.246964,471.611816 250.100739,483.576385 248.050491,495.557434 
	C247.182144,500.631805 244.292984,503.004211 239.173279,503.006042 
	C201.891998,503.019440 165.250824,498.829529 129.980591,486.042816 
	C115.985130,480.969025 102.246292,475.193939 90.844460,465.276672 
	C88.906403,463.590942 87.249794,460.461548 87.163651,457.941040 
	C86.356720,434.331177 89.822922,411.125824 94.477264,388.062500 
	C99.554306,362.904572 107.333656,338.580627 117.143639,314.891968 
	C118.850838,310.769470 120.493515,306.555573 122.781288,302.754211 
	C125.779884,297.771759 126.154953,292.530731 126.045898,286.967682 
	C125.612320,264.851074 125.608238,242.722763 124.906204,220.615891 
	C124.464767,206.715378 127.415741,193.334167 129.582840,179.801956 
	C131.068970,170.522003 132.937195,161.279343 133.893967,151.944107 
	C135.320038,138.030121 129.300354,126.614746 120.753242,116.167412 
	C117.854401,112.624092 115.405441,108.685768 112.990646,104.779739 
	C109.439438,99.035515 107.769829,92.912773 107.877258,85.936066 
	C108.221024,63.610817 107.993248,41.276939 108.012123,18.946419 
	C108.018623,11.263030 111.198990,8.013922 118.774025,8.012867 
	C209.262695,8.000270 299.751373,7.999196 390.240051,8.013739 
	C398.618011,8.015085 400.988220,10.385700 400.991852,18.570902 
	C401.001831,40.901436 400.566284,63.244087 401.195740,85.556877 
	C401.467743,95.198700 397.734039,102.846359 393.025604,110.440094 
	C390.683746,114.217064 387.943756,117.772346 385.149567,121.239082 
	C376.012909,132.574753 374.377472,145.236069 376.467712,159.401291 
	C379.715973,181.414246 385.687469,203.093323 385.028717,225.634903 
	C384.523804,242.912582 384.329010,260.199341 383.996277,277.977661 
M320.478546,403.998871 
	C315.302979,431.364685 312.901672,458.882721 315.193298,487.140442 
	C339.240997,484.562714 361.457703,478.741516 381.875916,467.014252 
	C382.998230,466.369629 383.995453,464.351044 383.947327,463.011688 
	C383.624451,454.028046 383.634491,444.964844 382.366638,436.094635 
	C377.215820,400.058685 364.728119,366.112213 352.006195,332.258453 
	C350.577057,328.455383 347.987732,325.981293 343.750519,326.346375 
	C339.269226,326.732483 337.232208,329.906891 336.314423,333.972290 
	C331.107056,357.039062 325.902191,380.106384 320.478546,403.998871 
M125.283913,459.505219 
	C124.240807,464.394501 126.549469,466.950867 130.846420,469.116516 
	C146.151428,476.830078 162.213150,482.091156 179.058304,485.029236 
	C183.924133,485.877899 188.834351,486.472137 194.040726,487.229004 
	C194.339478,485.043945 194.759079,483.578186 194.704620,482.130280 
	C194.004135,463.504486 195.038712,444.589417 192.082214,426.322479 
	C187.061005,395.298676 179.512894,364.683868 173.030212,333.896454 
	C172.158966,329.758698 169.987213,326.700226 165.546951,326.350372 
	C161.029541,325.994415 158.593445,328.891144 157.142975,332.811676 
	C154.253662,340.621368 151.192596,348.372223 148.499802,356.249054 
	C137.120575,389.534973 125.756882,422.837067 125.283913,459.505219 
M222.762909,306.733826 
	C227.999039,317.504913 233.065598,328.365143 238.633957,338.961639 
	C239.590790,340.782532 243.050552,342.796387 244.690811,342.339539 
	C246.446289,341.850616 247.539993,338.608643 248.665955,336.435333 
	C249.075638,335.644562 248.752777,334.470795 248.752808,333.471771 
	C248.753891,291.677216 248.754059,249.882675 248.751892,208.088120 
	C248.751831,206.922714 248.757446,205.755859 248.704956,204.592178 
	C248.536133,200.850510 246.733856,198.640076 242.826920,198.631714 
	C235.002182,198.614960 227.167175,198.425690 219.355545,198.757629 
	C212.724258,199.039413 208.388275,203.679153 208.134201,210.493179 
	C206.913696,243.227982 209.818832,275.363770 222.762909,306.733826 
M260.814636,330.446350 
	C260.815582,331.945587 260.834045,333.445099 260.813934,334.944031 
	C260.770569,338.175842 260.597351,341.620056 264.627716,342.647705 
	C268.670471,343.678528 270.018555,340.486237 271.650024,337.700134 
	C294.566956,298.563568 303.672791,256.222992 301.193329,211.154709 
	C300.757202,203.228073 296.675629,198.884491 288.660492,198.649567 
	C282.335571,198.464172 276.001373,198.566925 269.671448,198.590240 
	C261.665527,198.619720 260.822815,199.463821 260.820709,207.522415 
	C260.810059,248.168503 260.815094,288.814606 260.814636,330.446350 
M197.816055,349.935577 
	C200.012161,373.297241 202.164658,396.663177 204.429367,420.018188 
	C205.166962,427.624756 205.349518,435.425934 207.274872,442.746521 
	C210.995026,456.891418 215.799835,470.749939 220.097046,484.744934 
	C221.312973,488.704865 223.124191,492.092255 227.921600,491.532043 
	C232.952652,490.944519 233.842804,487.166595 234.144272,482.782104 
	C235.879730,457.543304 238.082367,432.331116 239.374512,407.071381 
	C239.683304,401.035095 238.699020,393.870087 235.601242,388.918457 
	C225.727020,373.134949 214.618896,358.119904 203.831940,342.918304 
	C203.074936,341.851501 200.803055,340.938751 199.685516,341.309753 
	C198.584824,341.675110 197.748505,343.684753 197.372574,345.123535 
	C197.058640,346.325043 197.578079,347.744263 197.816055,349.935577 
M281.472992,376.961151 
	C274.298309,386.203857 268.448578,395.802612 269.868958,408.369537 
	C270.989746,418.286163 271.330200,428.290710 272.031189,438.255219 
	C273.106018,453.534485 274.183197,468.813629 275.281464,484.091217 
	C275.557831,487.935608 277.080261,490.986969 281.280548,491.536591 
	C285.169403,492.045441 287.753967,489.970612 288.729553,486.340149 
	C294.237244,465.844604 303.159698,446.331268 304.678009,424.675385 
	C306.481964,398.945282 309.517181,373.302765 311.800323,347.602844 
	C311.985260,345.521332 310.483887,343.290009 309.766083,341.128296 
	C307.845215,342.387054 305.362915,343.235931 304.095642,344.971863 
	C296.537323,355.325256 289.259430,365.883362 281.472992,376.961151 
M222.597351,123.871368 
	C211.539780,123.894958 206.700333,126.876381 206.497772,135.021591 
	C206.125549,149.990479 206.183731,164.979248 206.480011,179.951492 
	C206.618332,186.941498 211.093292,190.956909 218.041565,191.115204 
	C225.693741,191.289536 233.353928,191.247971 241.008392,191.140503 
	C246.375763,191.065140 248.650879,188.919952 248.687485,183.504333 
	C248.804504,166.195709 248.807220,148.885254 248.688065,131.576660 
	C248.649567,125.986938 246.324600,123.968399 240.548279,123.894478 
	C234.890305,123.822060 229.230713,123.873909 222.597351,123.871368 
M283.477234,191.177933 
	C286.138947,191.165237 288.804718,191.242828 291.461548,191.122360 
	C298.513397,190.802658 302.885132,186.484985 302.947784,179.344528 
	C303.076172,164.705521 303.088562,150.063507 302.936005,135.424957 
	C302.864685,128.582443 298.437927,124.125252 291.688995,123.960754 
	C283.708282,123.766235 275.719208,123.874695 267.734100,123.916374 
	C263.291870,123.939560 260.887512,126.280632 260.873444,130.707214 
	C260.816925,148.507980 260.827728,166.309036 260.851959,184.109940 
	C260.858368,188.809372 263.360657,191.123856 268.011688,191.150574 
	C272.836121,191.178284 277.660767,191.170334 283.477234,191.177933 
M343.702576,263.204773 
	C347.144531,259.146027 350.673218,255.157135 354.009247,251.013153 
	C359.806854,243.811279 363.499451,235.478394 363.592468,226.319061 
	C363.698425,215.880173 362.667816,205.410782 361.739594,194.989517 
	C361.357788,190.703384 357.871399,189.832977 354.567810,192.907654 
	C328.265381,217.387558 312.541595,246.701248 313.573425,283.512878 
	C313.633820,285.667450 314.972229,289.245239 316.320953,289.558899 
	C318.288879,290.016571 321.480682,288.733826 322.973724,287.110413 
	C329.950012,279.524994 336.522308,271.567993 343.702576,263.204773 
M159.105621,197.389572 
	C158.307114,196.539352 157.640671,195.476059 156.683044,194.882538 
	C154.579834,193.578964 152.329300,192.513062 150.138901,191.350128 
	C149.166199,193.673828 147.602280,195.930878 147.331375,198.333710 
	C146.510956,205.611023 146.105774,212.940033 145.696396,220.257706 
	C145.034729,232.085663 148.417450,242.708481 156.019073,251.778961 
	C166.079102,263.782898 176.283356,275.670441 186.678268,287.383759 
	C188.036179,288.913910 191.120041,290.062469 192.978287,289.615601 
	C194.337677,289.288727 195.918808,286.003387 195.813812,284.125488 
	C195.303604,274.999878 194.937408,265.777802 193.270416,256.822479 
	C188.906250,233.377289 176.401962,214.353790 159.105621,197.389572 
M260.465973,34.900524 
	C260.466064,38.064854 260.438416,41.229477 260.471863,44.393452 
	C260.546204,51.425232 261.470398,52.621365 268.462036,54.121128 
	C283.630035,57.374779 298.605927,61.250076 312.574799,68.196815 
	C316.016418,69.908325 318.303741,68.569778 320.508209,66.272682 
	C328.052856,58.410969 333.284088,49.212269 335.624298,38.568172 
	C337.515533,29.966202 334.082092,25.755411 325.392731,25.715235 
	C306.573669,25.628223 287.753845,25.649515 268.934570,25.707432 
	C262.375244,25.727619 260.966492,27.221968 260.465973,34.900524 
M181.884155,25.731880 
	C175.156937,26.688297 172.494324,29.926489 173.509338,36.570145 
	C175.218521,47.757294 180.571930,57.206234 187.883102,65.682320 
	C190.801895,69.066162 193.864288,69.926979 197.919067,67.519112 
	C200.466888,66.006142 203.316956,64.868576 206.168030,64.023430 
	C217.461487,60.675701 228.779953,57.403637 240.146317,54.313759 
	C247.643692,52.275642 248.320862,51.629486 248.357224,43.723888 
	C248.370987,40.729885 248.381836,37.735523 248.352219,34.741734 
	C248.278259,27.262993 246.763290,25.708920 239.196381,25.695648 
	C220.400360,25.662683 201.604248,25.695251 181.884155,25.731880 
M195.088669,99.260674 
	C196.768143,102.498810 198.409195,105.757622 200.137177,108.969666 
	C202.141571,112.695473 205.354935,114.393578 209.543472,114.390778 
	C220.351288,114.383545 231.159119,114.376587 241.966888,114.401421 
	C246.500641,114.411835 248.729416,112.161278 248.734344,107.674751 
	C248.747330,95.869194 248.829681,84.062691 248.705704,72.258438 
	C248.647934,66.757446 246.275986,64.932816 240.715851,65.560997 
	C226.093307,67.213066 213.339966,73.268860 201.693222,82.012161 
	C196.115067,86.199715 193.588623,91.527290 195.088669,99.260674 
M276.514709,114.420906 
	C282.342529,114.420746 288.247925,113.816780 293.981049,114.553528 
	C304.080780,115.851395 309.424500,110.868149 313.106567,102.345512 
	C316.290894,94.974953 315.191498,88.079979 308.923615,83.030602 
	C297.147156,73.543617 283.874664,67.332253 268.712555,65.570427 
	C263.061981,64.913834 260.906250,66.676735 260.849396,72.272530 
	C260.756348,81.429588 260.831177,90.588249 260.810547,99.746178 
	C260.777222,114.560997 259.582275,114.605278 276.514709,114.420906 
M141.945831,295.347931 
	C134.709732,314.302185 127.415451,333.234497 120.258003,352.218414 
	C115.481789,364.886475 111.768562,377.828552 112.111809,391.543091 
	C112.158020,393.389221 113.514847,395.202576 114.264763,397.031097 
	C115.538658,395.569580 117.334328,394.312286 117.999649,392.612610 
	C121.635223,383.324463 124.644310,373.780701 128.512451,364.595917 
	C139.614151,338.235260 150.980133,311.985352 162.357437,285.741852 
	C164.308594,281.241211 165.540070,276.633972 162.977859,272.335693 
	C158.896042,265.488159 154.224594,258.987610 149.669052,252.433044 
	C149.145905,251.680359 147.770981,251.519684 146.790985,251.084534 
	C146.359985,252.087982 145.571152,253.085724 145.555084,254.095779 
	C145.435867,261.585754 145.883713,269.109070 145.326736,276.560120 
	C144.873917,282.618011 143.274323,288.590118 141.945831,295.347931 
M399.007355,377.535187 
	C397.122009,370.477692 395.747467,363.234009 393.255371,356.397675 
	C385.853638,336.093140 377.759155,316.039124 370.495758,295.687256 
	C368.307465,289.555634 367.447205,282.813171 366.890930,276.272949 
	C366.286499,269.166809 366.823822,261.968506 366.666443,254.814713 
	C366.638397,253.541565 365.649902,252.289520 365.104919,251.027725 
	C364.069305,251.691452 362.710846,252.126068 362.050690,253.056244 
	C357.910706,258.889496 353.841675,264.777710 349.919067,270.759155 
	C347.147125,274.985992 347.149628,279.570831 349.115021,284.124420 
	C351.223419,289.009460 353.629883,293.769257 355.643677,298.691193 
	C368.545837,330.225891 381.354645,361.798828 394.296661,393.317108 
	C394.895660,394.775940 396.475250,395.832092 397.598175,397.075806 
	C398.411469,395.493866 399.895752,393.918457 399.911285,392.328705 
	C399.956573,387.692383 399.414948,383.050323 399.007355,377.535187 
M336.349976,157.848221 
	C338.867218,155.673126 341.406799,153.523285 343.897552,151.318268 
	C351.471985,144.612793 356.008423,136.232712 356.488892,126.125252 
	C356.946594,116.497772 356.747498,106.836464 356.695984,97.190788 
	C356.689728,96.022614 355.805115,94.859131 355.327606,93.693466 
	C354.098297,94.332375 352.559418,94.692032 351.690125,95.655701 
	C346.231781,101.706978 340.728394,107.736221 335.615601,114.075729 
	C329.915100,121.144005 327.029907,129.394333 326.926971,138.530533 
	C326.868896,143.686920 326.751648,148.849243 326.933807,153.999222 
	C327.040833,157.024139 327.682922,160.030106 328.084351,163.044601 
	C330.660370,161.464600 333.236420,159.884598 336.349976,157.848221 
M160.920105,146.541779 
	C166.456619,151.584946 171.953568,156.672989 177.570343,161.625122 
	C178.459564,162.409119 180.518494,163.274887 180.940475,162.892685 
	C181.872223,162.048752 182.533264,160.439880 182.552429,159.132065 
	C182.657425,151.971024 182.706406,144.800476 182.447601,137.645004 
	C182.118546,128.546707 179.057907,120.338707 173.208298,113.332245 
	C168.191238,107.323013 162.988312,101.465363 157.735901,95.659805 
	C156.863358,94.695374 155.316849,94.340683 154.081772,93.704216 
	C153.654282,95.050087 152.875214,96.391167 152.856781,97.742630 
	C152.743164,106.072052 152.877701,114.404716 152.780823,122.734566 
	C152.680130,131.393143 155.195190,139.133026 160.920105,146.541779 
M356.017120,178.271591 
	C356.260345,172.293106 356.678436,166.313065 356.624664,160.337250 
	C356.611084,158.830139 355.397705,156.532120 354.172943,156.061264 
	C352.927765,155.582581 350.611145,156.479584 349.417267,157.522400 
	C344.151764,162.121567 338.494110,166.494781 334.208435,171.921204 
	C330.862793,176.157379 328.376099,181.620346 327.248016,186.909348 
	C326.057617,192.490524 326.770752,198.518387 327.009796,204.336395 
	C327.073029,205.875458 328.135376,208.187729 329.316589,208.641571 
	C330.540314,209.111755 332.905121,208.203979 334.007782,207.121552 
	C338.758606,202.457977 343.574066,197.781738 347.691681,192.576675 
	C350.928741,188.484695 353.178284,183.611526 356.017120,178.271591 
M160.260498,191.214127 
	C165.276047,196.526138 170.199875,201.930481 175.380600,207.076202 
	C176.483597,208.171768 178.818787,209.134995 180.044800,208.684753 
	C181.254883,208.240372 182.444244,205.946213 182.486969,204.430984 
	C182.659760,198.301697 182.902771,192.090820 182.094666,186.047150 
	C181.566772,182.099182 180.140381,177.630493 177.597717,174.723404 
	C171.941177,168.256149 165.453827,162.486465 159.045746,156.720688 
	C156.642761,154.558594 153.280548,154.982025 153.105743,158.586990 
	C152.563034,169.778580 150.954575,181.373672 160.260498,191.214127 
z"/>
<path fill="#9EAACD" opacity="1.000000" stroke="none" 
	d="
M320.587524,403.586182 
	C325.902191,380.106384 331.107056,357.039062 336.314423,333.972290 
	C337.232208,329.906891 339.269226,326.732483 343.750519,326.346375 
	C347.987732,325.981293 350.577057,328.455383 352.006195,332.258453 
	C364.728119,366.112213 377.215820,400.058685 382.366638,436.094635 
	C383.634491,444.964844 383.624451,454.028046 383.947327,463.011688 
	C383.995453,464.351044 382.998230,466.369629 381.875916,467.014252 
	C361.457703,478.741516 339.240997,484.562714 315.193298,487.140442 
	C312.901672,458.882721 315.302979,431.364685 320.587524,403.586182 
z"/>
<path fill="#9EAACD" opacity="1.000000" stroke="none" 
	d="
M125.297943,459.054962 
	C125.756882,422.837067 137.120575,389.534973 148.499802,356.249054 
	C151.192596,348.372223 154.253662,340.621368 157.142975,332.811676 
	C158.593445,328.891144 161.029541,325.994415 165.546951,326.350372 
	C169.987213,326.700226 172.158966,329.758698 173.030212,333.896454 
	C179.512894,364.683868 187.061005,395.298676 192.082214,426.322479 
	C195.038712,444.589417 194.004135,463.504486 194.704620,482.130280 
	C194.759079,483.578186 194.339478,485.043945 194.040726,487.229004 
	C188.834351,486.472137 183.924133,485.877899 179.058304,485.029236 
	C162.213150,482.091156 146.151428,476.830078 130.846420,469.116516 
	C126.549469,466.950867 124.240807,464.394501 125.297943,459.054962 
z"/>
<path fill="#9EAACC" opacity="1.000000" stroke="none" 
	d="
M222.606812,306.382629 
	C209.818832,275.363770 206.913696,243.227982 208.134201,210.493179 
	C208.388275,203.679153 212.724258,199.039413 219.355545,198.757629 
	C227.167175,198.425690 235.002182,198.614960 242.826920,198.631714 
	C246.733856,198.640076 248.536133,200.850510 248.704956,204.592178 
	C248.757446,205.755859 248.751831,206.922714 248.751892,208.088120 
	C248.754059,249.882675 248.753891,291.677216 248.752808,333.471771 
	C248.752777,334.470795 249.075638,335.644562 248.665955,336.435333 
	C247.539993,338.608643 246.446289,341.850616 244.690811,342.339539 
	C243.050552,342.796387 239.590790,340.782532 238.633957,338.961639 
	C233.065598,328.365143 227.999039,317.504913 222.606812,306.382629 
z"/>
<path fill="#9FABCE" opacity="1.000000" stroke="none" 
	d="
M260.814636,329.953522 
	C260.815094,288.814606 260.810059,248.168503 260.820709,207.522415 
	C260.822815,199.463821 261.665527,198.619720 269.671448,198.590240 
	C276.001373,198.566925 282.335571,198.464172 288.660492,198.649567 
	C296.675629,198.884491 300.757202,203.228073 301.193329,211.154709 
	C303.672791,256.222992 294.566956,298.563568 271.650024,337.700134 
	C270.018555,340.486237 268.670471,343.678528 264.627716,342.647705 
	C260.597351,341.620056 260.770569,338.175842 260.813934,334.944031 
	C260.834045,333.445099 260.815582,331.945587 260.814636,329.953522 
z"/>
<path fill="#9EAACD" opacity="1.000000" stroke="none" 
	d="
M197.772247,349.501343 
	C197.578079,347.744263 197.058640,346.325043 197.372574,345.123535 
	C197.748505,343.684753 198.584824,341.675110 199.685516,341.309753 
	C200.803055,340.938751 203.074936,341.851501 203.831940,342.918304 
	C214.618896,358.119904 225.727020,373.134949 235.601242,388.918457 
	C238.699020,393.870087 239.683304,401.035095 239.374512,407.071381 
	C238.082367,432.331116 235.879730,457.543304 234.144272,482.782104 
	C233.842804,487.166595 232.952652,490.944519 227.921600,491.532043 
	C223.124191,492.092255 221.312973,488.704865 220.097046,484.744934 
	C215.799835,470.749939 210.995026,456.891418 207.274872,442.746521 
	C205.349518,435.425934 205.166962,427.624756 204.429367,420.018188 
	C202.164658,396.663177 200.012161,373.297241 197.772247,349.501343 
z"/>
<path fill="#9EAACD" opacity="1.000000" stroke="none" 
	d="
M281.680206,376.666962 
	C289.259430,365.883362 296.537323,355.325256 304.095642,344.971863 
	C305.362915,343.235931 307.845215,342.387054 309.766083,341.128296 
	C310.483887,343.290009 311.985260,345.521332 311.800323,347.602844 
	C309.517181,373.302765 306.481964,398.945282 304.678009,424.675385 
	C303.159698,446.331268 294.237244,465.844604 288.729553,486.340149 
	C287.753967,489.970612 285.169403,492.045441 281.280548,491.536591 
	C277.080261,490.986969 275.557831,487.935608 275.281464,484.091217 
	C274.183197,468.813629 273.106018,453.534485 272.031189,438.255219 
	C271.330200,428.290710 270.989746,418.286163 269.868958,408.369537 
	C268.448578,395.802612 274.298309,386.203857 281.680206,376.666962 
z"/>
<path fill="#9EAACC" opacity="1.000000" stroke="none" 
	d="
M223.084595,123.871292 
	C229.230713,123.873909 234.890305,123.822060 240.548279,123.894478 
	C246.324600,123.968399 248.649567,125.986938 248.688065,131.576660 
	C248.807220,148.885254 248.804504,166.195709 248.687485,183.504333 
	C248.650879,188.919952 246.375763,191.065140 241.008392,191.140503 
	C233.353928,191.247971 225.693741,191.289536 218.041565,191.115204 
	C211.093292,190.956909 206.618332,186.941498 206.480011,179.951492 
	C206.183731,164.979248 206.125549,149.990479 206.497772,135.021591 
	C206.700333,126.876381 211.539780,123.894958 223.084595,123.871292 
z"/>
<path fill="#9FABCE" opacity="1.000000" stroke="none" 
	d="
M282.981262,191.177948 
	C277.660767,191.170334 272.836121,191.178284 268.011688,191.150574 
	C263.360657,191.123856 260.858368,188.809372 260.851959,184.109940 
	C260.827728,166.309036 260.816925,148.507980 260.873444,130.707214 
	C260.887512,126.280632 263.291870,123.939560 267.734100,123.916374 
	C275.719208,123.874695 283.708282,123.766235 291.688995,123.960754 
	C298.437927,124.125252 302.864685,128.582443 302.936005,135.424957 
	C303.088562,150.063507 303.076172,164.705521 302.947784,179.344528 
	C302.885132,186.484985 298.513397,190.802658 291.461548,191.122360 
	C288.804718,191.242828 286.138947,191.165237 282.981262,191.177948 
z"/>
<path fill="#9EAACD" opacity="1.000000" stroke="none" 
	d="
M343.470795,263.474304 
	C336.522308,271.567993 329.950012,279.524994 322.973724,287.110413 
	C321.480682,288.733826 318.288879,290.016571 316.320953,289.558899 
	C314.972229,289.245239 313.633820,285.667450 313.573425,283.512878 
	C312.541595,246.701248 328.265381,217.387558 354.567810,192.907654 
	C357.871399,189.832977 361.357788,190.703384 361.739594,194.989517 
	C362.667816,205.410782 363.698425,215.880173 363.592468,226.319061 
	C363.499451,235.478394 359.806854,243.811279 354.009247,251.013153 
	C350.673218,255.157135 347.144531,259.146027 343.470795,263.474304 
z"/>
<path fill="#9EAACD" opacity="1.000000" stroke="none" 
	d="
M159.345612,197.648331 
	C176.401962,214.353790 188.906250,233.377289 193.270416,256.822479 
	C194.937408,265.777802 195.303604,274.999878 195.813812,284.125488 
	C195.918808,286.003387 194.337677,289.288727 192.978287,289.615601 
	C191.120041,290.062469 188.036179,288.913910 186.678268,287.383759 
	C176.283356,275.670441 166.079102,263.782898 156.019073,251.778961 
	C148.417450,242.708481 145.034729,232.085663 145.696396,220.257706 
	C146.105774,212.940033 146.510956,205.611023 147.331375,198.333710 
	C147.602280,195.930878 149.166199,193.673828 150.138916,191.350128 
	C152.329300,192.513062 154.579834,193.578964 156.683044,194.882538 
	C157.640671,195.476059 158.307114,196.539352 159.345612,197.648331 
z"/>
<path fill="#9EAACD" opacity="1.000000" stroke="none" 
	d="
M260.469849,34.453667 
	C260.966492,27.221968 262.375244,25.727619 268.934570,25.707432 
	C287.753845,25.649515 306.573669,25.628223 325.392731,25.715235 
	C334.082092,25.755411 337.515533,29.966202 335.624298,38.568172 
	C333.284088,49.212269 328.052856,58.410969 320.508209,66.272682 
	C318.303741,68.569778 316.016418,69.908325 312.574799,68.196815 
	C298.605927,61.250076 283.630035,57.374779 268.462036,54.121128 
	C261.470398,52.621365 260.546204,51.425232 260.471863,44.393452 
	C260.438416,41.229477 260.466064,38.064854 260.469849,34.453667 
z"/>
<path fill="#9EAACD" opacity="1.000000" stroke="none" 
	d="
M182.346161,25.716690 
	C201.604248,25.695251 220.400360,25.662683 239.196381,25.695648 
	C246.763290,25.708920 248.278259,27.262993 248.352219,34.741734 
	C248.381836,37.735523 248.370987,40.729885 248.357224,43.723888 
	C248.320862,51.629486 247.643692,52.275642 240.146317,54.313759 
	C228.779953,57.403637 217.461487,60.675701 206.168030,64.023430 
	C203.316956,64.868576 200.466888,66.006142 197.919067,67.519112 
	C193.864288,69.926979 190.801895,69.066162 187.883102,65.682320 
	C180.571930,57.206234 175.218521,47.757294 173.509338,36.570145 
	C172.494324,29.926489 175.156937,26.688297 182.346161,25.716690 
z"/>
<path fill="#9EAACD" opacity="1.000000" stroke="none" 
	d="
M195.014374,98.879753 
	C193.588623,91.527290 196.115067,86.199715 201.693222,82.012161 
	C213.339966,73.268860 226.093307,67.213066 240.715851,65.560997 
	C246.275986,64.932816 248.647934,66.757446 248.705704,72.258438 
	C248.829681,84.062691 248.747330,95.869194 248.734344,107.674751 
	C248.729416,112.161278 246.500641,114.411835 241.966888,114.401421 
	C231.159119,114.376587 220.351288,114.383545 209.543472,114.390778 
	C205.354935,114.393578 202.141571,112.695473 200.137177,108.969666 
	C198.409195,105.757622 196.768143,102.498810 195.014374,98.879753 
z"/>
<path fill="#9FABCE" opacity="1.000000" stroke="none" 
	d="
M276.018311,114.421036 
	C259.582275,114.605278 260.777222,114.560997 260.810547,99.746178 
	C260.831177,90.588249 260.756348,81.429588 260.849396,72.272530 
	C260.906250,66.676735 263.061981,64.913834 268.712555,65.570427 
	C283.874664,67.332253 297.147156,73.543617 308.923615,83.030602 
	C315.191498,88.079979 316.290894,94.974953 313.106567,102.345512 
	C309.424500,110.868149 304.080780,115.851395 293.981049,114.553528 
	C288.247925,113.816780 282.342529,114.420746 276.018311,114.421036 
z"/>
<path fill="#FB0250" opacity="1.000000" stroke="none" 
	d="
M142.064545,294.974121 
	C143.274323,288.590118 144.873917,282.618011 145.326736,276.560120 
	C145.883713,269.109070 145.435867,261.585754 145.555084,254.095779 
	C145.571152,253.085724 146.359985,252.087982 146.790985,251.084534 
	C147.770981,251.519684 149.145905,251.680359 149.669052,252.433044 
	C154.224594,258.987610 158.896042,265.488159 162.977859,272.335693 
	C165.540070,276.633972 164.308594,281.241211 162.357437,285.741852 
	C150.980133,311.985352 139.614151,338.235260 128.512451,364.595917 
	C124.644310,373.780701 121.635223,383.324463 117.999649,392.612610 
	C117.334328,394.312286 115.538658,395.569580 114.264771,397.031097 
	C113.514847,395.202576 112.158020,393.389221 112.111809,391.543091 
	C111.768562,377.828552 115.481789,364.886475 120.258003,352.218414 
	C127.415451,333.234497 134.709732,314.302185 142.064545,294.974121 
z"/>
<path fill="#FB0250" opacity="1.000000" stroke="none" 
	d="
M399.055389,377.972839 
	C399.414948,383.050323 399.956573,387.692383 399.911285,392.328705 
	C399.895752,393.918457 398.411469,395.493866 397.598175,397.075806 
	C396.475250,395.832092 394.895660,394.775940 394.296661,393.317108 
	C381.354645,361.798828 368.545837,330.225891 355.643677,298.691193 
	C353.629883,293.769257 351.223419,289.009460 349.115021,284.124420 
	C347.149628,279.570831 347.147125,274.985992 349.919067,270.759155 
	C353.841675,264.777710 357.910706,258.889496 362.050690,253.056244 
	C362.710846,252.126068 364.069305,251.691452 365.104919,251.027725 
	C365.649902,252.289520 366.638397,253.541565 366.666443,254.814713 
	C366.823822,261.968506 366.286499,269.166809 366.890930,276.272949 
	C367.447205,282.813171 368.307465,289.555634 370.495758,295.687256 
	C377.759155,316.039124 385.853638,336.093140 393.255371,356.397675 
	C395.747467,363.234009 397.122009,370.477692 399.055389,377.972839 
z"/>
<path fill="#9DA9CC" opacity="1.000000" stroke="none" 
	d="
M336.081207,158.076416 
	C333.236420,159.884598 330.660370,161.464600 328.084351,163.044601 
	C327.682922,160.030106 327.040833,157.024139 326.933807,153.999222 
	C326.751648,148.849243 326.868896,143.686920 326.926971,138.530533 
	C327.029907,129.394333 329.915100,121.144005 335.615601,114.075729 
	C340.728394,107.736221 346.231781,101.706978 351.690125,95.655701 
	C352.559418,94.692032 354.098297,94.332375 355.327606,93.693466 
	C355.805115,94.859131 356.689728,96.022614 356.695984,97.190788 
	C356.747498,106.836464 356.946594,116.497772 356.488892,126.125252 
	C356.008423,136.232712 351.471985,144.612793 343.897552,151.318268 
	C341.406799,153.523285 338.867218,155.673126 336.081207,158.076416 
z"/>
<path fill="#9EAACC" opacity="1.000000" stroke="none" 
	d="
M160.689819,146.267334 
	C155.195190,139.133026 152.680130,131.393143 152.780823,122.734566 
	C152.877701,114.404716 152.743164,106.072052 152.856781,97.742630 
	C152.875214,96.391167 153.654282,95.050087 154.081787,93.704224 
	C155.316849,94.340683 156.863358,94.695374 157.735901,95.659805 
	C162.988312,101.465363 168.191238,107.323013 173.208298,113.332245 
	C179.057907,120.338707 182.118546,128.546707 182.447601,137.645004 
	C182.706406,144.800476 182.657425,151.971024 182.552429,159.132065 
	C182.533264,160.439880 181.872223,162.048752 180.940475,162.892685 
	C180.518494,163.274887 178.459564,162.409119 177.570343,161.625122 
	C171.953568,156.672989 166.456619,151.584946 160.689819,146.267334 
z"/>
<path fill="#9DA9CC" opacity="1.000000" stroke="none" 
	d="
M355.941803,178.678467 
	C353.178284,183.611526 350.928741,188.484695 347.691681,192.576675 
	C343.574066,197.781738 338.758606,202.457977 334.007782,207.121552 
	C332.905121,208.203979 330.540314,209.111755 329.316589,208.641571 
	C328.135376,208.187729 327.073029,205.875458 327.009796,204.336395 
	C326.770752,198.518387 326.057617,192.490524 327.248016,186.909348 
	C328.376099,181.620346 330.862793,176.157379 334.208435,171.921204 
	C338.494110,166.494781 344.151764,162.121567 349.417267,157.522400 
	C350.611145,156.479584 352.927765,155.582581 354.172943,156.061264 
	C355.397705,156.532120 356.611084,158.830139 356.624664,160.337250 
	C356.678436,166.313065 356.260345,172.293106 355.941803,178.678467 
z"/>
<path fill="#9DA9CC" opacity="1.000000" stroke="none" 
	d="
M160.028046,190.943573 
	C150.954575,181.373672 152.563034,169.778580 153.105743,158.586990 
	C153.280548,154.982025 156.642761,154.558594 159.045746,156.720688 
	C165.453827,162.486465 171.941177,168.256149 177.597717,174.723404 
	C180.140381,177.630493 181.566772,182.099182 182.094666,186.047150 
	C182.902771,192.090820 182.659760,198.301697 182.486969,204.430984 
	C182.444244,205.946213 181.254883,208.240372 180.044800,208.684753 
	C178.818787,209.134995 176.483597,208.171768 175.380600,207.076202 
	C170.199875,201.930481 165.276047,196.526138 160.028046,190.943573 
z"/>
</svg>