<svg version="1.1" id="Layer_1" xmlns="http://www.w3.org/2000/svg" xmlns:xlink="http://www.w3.org/1999/xlink" x="0px" y="0px"
	 width="100%" viewBox="0 0 512 512" enable-background="new 0 0 512 512" xml:space="preserve">
<path fill="none" opacity="1.000000" stroke="none" 
	d="
M299.000000,513.000000 
	C199.357529,513.000000 100.215050,513.000000 1.036289,513.000000 
	C1.036289,342.399170 1.036289,171.798325 1.036289,1.098744 
	C171.559158,1.098744 342.118378,1.098744 512.838806,1.098744 
	C512.838806,171.666550 512.838806,342.333252 512.838806,513.000000 
	C441.798309,513.000000 370.649139,513.000000 299.000000,513.000000 
M392.153656,439.721863 
	C401.460022,450.866577 410.935089,461.876282 420.005829,473.209595 
	C424.984039,479.429565 431.250580,481.768036 438.765076,480.814301 
	C445.170898,480.001282 446.684662,475.953247 443.179504,470.611786 
	C433.791473,456.305664 424.461578,441.961365 415.143311,427.609680 
	C414.727295,426.968964 414.652039,426.107025 414.418060,425.348114 
	C424.866760,433.921387 434.323822,443.182709 443.877106,452.343689 
	C449.616669,457.847565 456.362427,459.198486 464.040375,457.125763 
	C471.725555,455.051086 472.375519,450.308228 466.882782,445.247192 
	C453.494385,432.911133 440.452972,420.198547 427.671295,407.275482 
	C427.804016,407.154327 427.936768,407.033142 428.770905,407.031830 
	C438.776794,412.808136 448.764343,418.616516 458.794403,424.350586 
	C466.695038,428.867279 474.607422,430.018799 482.507538,424.234528 
	C486.869659,421.040680 486.981018,417.581543 482.584991,414.322540 
	C465.111603,401.368591 447.604340,388.460297 430.127808,375.510529 
	C427.262115,373.387115 424.487640,371.140533 421.671021,368.950867 
	C427.676788,369.230347 433.179901,370.040802 438.625061,371.138641 
	C447.356262,372.898956 455.754089,368.640320 459.161407,360.521790 
	C461.566925,354.790222 459.846344,351.555695 453.933746,349.828491 
	C441.107117,346.081543 428.278717,342.322479 415.561981,338.224091 
	C407.386597,335.589294 399.459717,335.360291 391.222870,337.940643 
	C387.189209,339.204285 382.720337,340.214874 378.587952,339.832428 
	C359.669525,338.081604 343.765991,329.424225 332.589600,314.478424 
	C321.680298,299.889801 312.460876,283.976990 303.195007,268.236176 
	C292.917450,250.776749 282.591431,233.448120 267.265778,219.812164 
	C256.546661,210.274918 244.685974,202.677124 230.586578,198.974380 
	C228.843918,198.516724 226.953537,197.113968 225.949677,195.604950 
	C220.928879,188.057510 216.726318,179.909531 211.225052,172.749496 
	C199.241165,157.152283 184.165665,145.654053 164.578384,141.127716 
	C161.850067,140.497253 160.573853,139.538330 159.662933,136.648315 
	C151.679565,111.319664 141.561478,86.979370 126.089897,65.118126 
	C118.904182,54.964748 110.552422,46.289810 99.100533,41.055405 
	C79.642952,32.161770 59.033836,28.617960 37.827152,29.316669 
	C33.851452,29.447660 28.647415,32.609398 26.441069,35.968960 
	C23.656744,40.208603 22.181017,46.084057 22.172735,51.257092 
	C21.954760,187.412064 21.999817,323.567444 21.999891,459.722778 
	C21.999891,460.389374 21.987143,461.056305 22.002958,461.722534 
	C22.328064,475.417419 36.489269,484.222565 47.848499,477.594543 
	C50.560345,476.012238 53.369972,474.591919 56.037716,472.940552 
	C68.646996,465.135376 77.897964,454.958679 80.281593,439.600647 
	C82.277679,426.739594 84.914879,413.977753 86.890976,401.114014 
	C88.543060,390.359528 90.404160,379.550354 90.823044,368.713257 
	C91.479095,351.740021 91.241890,334.718231 90.923790,317.725586 
	C90.641930,302.668488 96.460182,290.220398 106.775269,279.945343 
	C113.337128,273.408936 117.584213,265.746918 120.950615,257.431305 
	C123.383553,251.421509 125.320328,245.210846 127.626099,238.670807 
	C137.476578,246.600647 146.771301,253.994675 155.929459,261.554138 
	C157.251221,262.645172 158.173492,264.425995 158.846771,266.065765 
	C167.720566,287.677521 181.556290,305.552826 199.876938,319.881958 
	C216.906998,333.201660 236.848846,340.917664 256.957764,348.026306 
	C274.700562,354.298584 292.679108,359.904724 310.559692,365.786438 
	C318.064911,368.255219 323.688141,373.281067 326.867737,380.179321 
	C332.109100,391.550781 337.024506,402.900177 344.503418,413.194672 
	C358.854767,432.948853 372.261871,453.386658 386.260651,473.400970 
	C389.963654,478.695282 393.077301,485.348083 400.698120,485.801270 
	C404.536865,486.029572 408.471558,484.645020 412.362823,483.989746 
	C411.266632,480.526825 410.635132,476.823486 408.990479,473.644257 
	C403.151672,462.357147 396.967316,451.248810 391.280792,439.676727 
	C391.402618,439.544220 391.524445,439.411743 392.153656,439.721863 
z"/>
<path fill="#494F69" opacity="1.000000" stroke="none" 
	d="
M390.913849,440.072754 
	C396.967316,451.248810 403.151672,462.357147 408.990479,473.644257 
	C410.635132,476.823486 411.266632,480.526825 412.362854,483.989746 
	C408.471558,484.645020 404.536865,486.029572 400.698120,485.801270 
	C393.077301,485.348083 389.963654,478.695282 386.260651,473.400970 
	C372.261871,453.386658 358.854767,432.948853 344.503418,413.194672 
	C337.024506,402.900177 332.109100,391.550781 326.867737,380.179321 
	C323.688141,373.281067 318.064911,368.255219 310.559692,365.786438 
	C292.679108,359.904724 274.700562,354.298584 256.957764,348.026306 
	C236.848846,340.917664 216.906998,333.201660 199.876938,319.881958 
	C181.556290,305.552826 167.720566,287.677521 158.846771,266.065765 
	C158.173492,264.425995 157.251221,262.645172 155.929459,261.554138 
	C146.771301,253.994675 137.476578,246.600647 127.626099,238.670807 
	C125.320328,245.210846 123.383553,251.421509 120.950615,257.431305 
	C117.584213,265.746918 113.337128,273.408936 106.775269,279.945343 
	C96.460182,290.220398 90.641930,302.668488 90.923790,317.725586 
	C91.241890,334.718231 91.479095,351.740021 90.823044,368.713257 
	C90.404160,379.550354 88.543060,390.359528 86.890976,401.114014 
	C84.914879,413.977753 82.277679,426.739594 80.281593,439.600647 
	C77.897964,454.958679 68.646996,465.135376 56.037716,472.940552 
	C53.369972,474.591919 50.560345,476.012238 47.848499,477.594543 
	C36.489269,484.222565 22.328064,475.417419 22.002958,461.722534 
	C21.987143,461.056305 21.999891,460.389374 21.999891,459.722778 
	C21.999817,323.567444 21.954760,187.412064 22.172735,51.257092 
	C22.181017,46.084057 23.656744,40.208603 26.441069,35.968960 
	C28.647415,32.609398 33.851452,29.447660 37.827152,29.316669 
	C59.033836,28.617960 79.642952,32.161770 99.100533,41.055405 
	C110.552422,46.289810 118.904182,54.964748 126.089897,65.118126 
	C141.561478,86.979370 151.679565,111.319664 159.662933,136.648315 
	C160.573853,139.538330 161.850067,140.497253 164.578384,141.127716 
	C184.165665,145.654053 199.241165,157.152283 211.225052,172.749496 
	C216.726318,179.909531 220.928879,188.057510 225.949677,195.604950 
	C226.953537,197.113968 228.843918,198.516724 230.586578,198.974380 
	C244.685974,202.677124 256.546661,210.274918 267.265778,219.812164 
	C282.591431,233.448120 292.917450,250.776749 303.195007,268.236176 
	C312.460876,283.976990 321.680298,299.889801 332.589600,314.478424 
	C343.765991,329.424225 359.669525,338.081604 378.587952,339.832428 
	C382.720337,340.214874 387.189209,339.204285 391.222870,337.940643 
	C399.459717,335.360291 407.386597,335.589294 415.561981,338.224091 
	C428.278717,342.322479 441.107117,346.081543 453.933746,349.828491 
	C459.846344,351.555695 461.566925,354.790222 459.161407,360.521790 
	C455.754089,368.640320 447.356262,372.898956 438.625061,371.138641 
	C433.179901,370.040802 427.676788,369.230347 421.671021,368.950867 
	C424.487640,371.140533 427.262115,373.387115 430.127808,375.510529 
	C447.604340,388.460297 465.111603,401.368591 482.584991,414.322540 
	C486.981018,417.581543 486.869659,421.040680 482.507538,424.234528 
	C474.607422,430.018799 466.695038,428.867279 458.794403,424.350586 
	C448.764343,418.616516 438.776794,412.808136 428.296204,406.755310 
	C427.378937,406.464874 426.936310,406.450897 426.493713,406.436951 
	C426.753082,406.837158 427.012451,407.237366 427.271820,407.637604 
	C440.452972,420.198547 453.494385,432.911133 466.882782,445.247192 
	C472.375519,450.308228 471.725555,455.051086 464.040375,457.125763 
	C456.362427,459.198486 449.616669,457.847565 443.877106,452.343689 
	C434.323822,443.182709 424.866760,433.921387 414.418060,425.348114 
	C414.652039,426.107025 414.727295,426.968964 415.143311,427.609680 
	C424.461578,441.961365 433.791473,456.305664 443.179504,470.611786 
	C446.684662,475.953247 445.170898,480.001282 438.765076,480.814301 
	C431.250580,481.768036 424.984039,479.429565 420.005829,473.209595 
	C410.935089,461.876282 401.460022,450.866577 391.729187,439.325867 
	C390.934845,438.927094 390.564941,438.924347 390.195068,438.921570 
	C390.434662,439.305298 390.674255,439.689026 390.913849,440.072754 
M68.682426,181.853180 
	C59.080791,179.779724 49.511127,177.539291 39.866001,175.693024 
	C33.697983,174.512360 32.044163,176.117493 32.043182,182.293564 
	C32.036442,224.787460 31.981487,267.281647 32.182220,309.774597 
	C32.194481,312.370483 33.650116,315.538727 35.475365,317.442352 
	C41.928082,324.172150 48.723495,330.589569 55.643047,336.844391 
	C57.435535,338.464661 60.246964,339.988342 62.412987,339.772888 
	C63.683994,339.646515 65.220070,336.106537 65.588669,333.924927 
	C69.300797,311.953888 77.073250,291.938293 92.363167,275.219757 
	C97.982498,269.075348 101.737701,261.601624 102.517395,253.317047 
	C103.402435,243.913055 104.157837,234.300644 103.173706,224.968216 
	C102.028374,214.107193 99.065781,203.421997 96.627800,192.720627 
	C95.605713,188.234222 92.303703,185.770126 87.761002,185.020538 
	C81.681824,184.017426 75.605049,182.999695 68.682426,181.853180 
M261.262299,234.244766 
	C252.881317,227.176270 244.671936,219.884216 235.984497,213.214890 
	C234.090652,211.760986 229.838089,211.426910 227.853928,212.591324 
	C225.861755,213.760468 224.180161,217.530151 224.362427,220.013367 
	C226.228210,245.433655 233.545456,269.053284 249.113068,289.610260 
	C264.870972,310.418488 283.449280,328.596161 302.626587,346.186005 
	C307.169250,350.352631 311.671844,354.588013 316.476135,358.438263 
	C323.381470,363.972290 332.940674,362.996918 338.511749,356.529999 
	C344.077789,350.068939 343.561554,340.522919 337.234222,334.423492 
	C335.317963,332.576263 333.182343,330.958923 331.195557,329.182159 
	C320.103363,319.262665 309.278870,309.026611 302.797272,295.334229 
	C292.225342,273.001007 278.362518,252.964386 261.262299,234.244766 
M122.284172,126.201813 
	C124.612404,127.101097 126.916801,128.069061 129.273407,128.886566 
	C135.906250,131.187454 139.803436,128.226471 138.937637,121.166046 
	C138.291687,115.898521 137.222580,110.646721 135.889145,105.505348 
	C124.987091,63.470356 98.784927,39.907261 57.050674,34.389965 
	C48.819328,33.301777 41.399792,35.150898 35.337986,40.839329 
	C33.645737,42.427345 32.249577,45.221413 32.185490,47.503445 
	C31.867754,58.816902 32.026779,70.144203 32.060062,81.466499 
	C32.064240,82.888718 32.318153,84.310196 32.436420,85.526878 
	C40.186466,86.747406 47.493172,87.511475 54.613857,89.106155 
	C66.612976,91.793358 76.543076,97.527359 82.305885,109.174713 
	C83.468018,111.523537 86.026291,113.875351 88.474068,114.774864 
	C99.393570,118.787552 110.506401,122.274124 122.284172,126.201813 
M83.678413,129.034775 
	C76.407837,101.694984 57.322117,95.223190 32.589962,92.490654 
	C32.442284,92.944908 32.159313,93.410362 32.158325,93.876404 
	C32.108257,117.532288 32.028042,141.188629 32.203999,164.843048 
	C32.213394,166.105911 34.230892,168.196030 35.604889,168.477112 
	C50.444622,171.513000 65.319389,174.395660 80.235374,177.032913 
	C87.231018,178.269791 90.191299,175.104813 89.216179,167.939240 
	C87.487534,155.236511 85.644402,142.549347 83.678413,129.034775 
M130.919357,158.597687 
	C121.094467,147.090683 109.721405,137.414352 96.551888,129.947632 
	C95.059044,129.101257 92.938095,129.362686 91.108414,129.110428 
	C91.062759,131.086639 90.545830,133.202301 91.079765,135.007034 
	C91.921425,137.851929 93.661980,140.417587 94.686119,143.224014 
	C100.157196,158.216217 106.431503,172.999771 110.605057,188.351089 
	C113.348305,198.441376 117.549255,206.956573 124.865501,214.087143 
	C138.304153,227.184799 153.989944,236.766006 171.575485,243.193573 
	C175.097229,244.480789 179.408691,247.539078 182.429169,243.009903 
	C185.308258,238.692719 181.030075,235.931656 178.530670,233.344162 
	C165.751602,220.114685 156.347183,204.925903 149.012848,188.001114 
	C144.574341,177.758774 137.341110,168.727493 130.919357,158.597687 
M127.094940,134.462112 
	C122.586365,136.966171 124.177528,139.656860 126.866348,142.360046 
	C139.263321,154.823273 149.859863,168.580109 158.760208,183.821106 
	C161.894028,189.187439 167.615570,193.075592 172.284744,197.502441 
	C176.364105,201.370117 181.293396,204.533691 184.658218,208.920319 
	C190.606064,216.674408 197.768402,222.654572 206.514435,226.674805 
	C208.602554,227.634659 212.428482,227.978317 213.689362,226.767151 
	C215.242477,225.275269 215.867325,221.621338 215.271866,219.321671 
	C213.735474,213.387970 211.690109,207.512726 209.171936,201.918472 
	C193.085648,166.182037 166.124741,143.405960 127.094940,134.462112 
M239.804733,298.696503 
	C225.917343,286.004608 212.219391,273.094971 198.030182,260.750031 
	C193.621399,256.914276 188.130310,253.995987 182.678787,251.778564 
	C177.391541,249.627945 172.636734,254.445602 174.567154,259.742096 
	C181.326523,278.287994 189.997208,295.662445 207.540329,306.580872 
	C216.712997,312.289703 226.030212,317.819855 235.600876,322.820648 
	C245.322067,327.900024 255.386063,332.340576 265.426361,336.774536 
	C267.061859,337.496796 269.351898,336.736877 271.339355,336.662048 
	C271.075653,334.546539 271.160553,332.302124 270.440857,330.355164 
	C269.835999,328.718903 268.426422,327.297729 267.145874,326.006744 
	C258.241180,317.029205 249.277130,308.110504 239.804733,298.696503 
M77.261925,404.720398 
	C77.868301,401.114594 79.019859,397.503845 78.987442,393.903809 
	C78.840775,377.612244 78.409271,361.322235 77.920135,345.036469 
	C77.872421,343.447937 76.726578,341.892426 76.090462,340.321564 
	C74.868813,341.662933 73.079979,342.799652 72.510910,344.376526 
	C64.492989,366.594299 56.357651,388.776917 48.846443,411.167877 
	C43.671440,426.594635 44.511650,427.466675 60.470306,431.194794 
	C65.849510,432.451447 68.916100,431.062683 70.653152,426.001221 
	C72.973633,419.239777 74.959145,412.363342 77.261925,404.720398 
M50.390526,376.942444 
	C52.024971,371.698425 53.600090,366.434998 55.308632,361.215210 
	C57.522991,354.450134 55.951195,348.694977 50.681164,344.048737 
	C45.809990,339.754211 40.773945,335.645325 35.765369,331.509338 
	C34.841736,330.746643 33.702625,330.244904 32.368603,329.446564 
	C32.368603,358.491486 32.368603,386.882324 32.368603,415.352509 
	C37.441025,414.110504 39.634396,412.061798 41.095264,407.309570 
	C44.127510,397.445679 47.131508,387.573120 50.390526,376.942444 
M225.446442,265.780029 
	C222.871964,259.148315 220.062042,252.596222 217.784821,245.863953 
	C215.161057,238.107147 212.432678,236.078186 204.266327,236.892197 
	C199.485245,237.368759 197.501038,241.257507 200.566910,244.912033 
	C207.062637,252.655060 213.821625,260.181580 220.613434,267.669189 
	C222.597198,269.856171 224.662979,269.965149 225.446442,265.780029 
M413.148529,423.457916 
	C412.865814,423.290619 412.583130,423.123291 412.300446,422.955963 
	C412.440033,423.195557 412.579620,423.435120 413.148529,423.457916 
z"/>
<path fill="#9FABCE" opacity="1.000000" stroke="none" 
	d="
M69.104836,181.920715 
	C75.605049,182.999695 81.681824,184.017426 87.761002,185.020538 
	C92.303703,185.770126 95.605713,188.234222 96.627800,192.720627 
	C99.065781,203.421997 102.028374,214.107193 103.173706,224.968216 
	C104.157837,234.300644 103.402435,243.913055 102.517395,253.317047 
	C101.737701,261.601624 97.982498,269.075348 92.363167,275.219757 
	C77.073250,291.938293 69.300797,311.953888 65.588669,333.924927 
	C65.220070,336.106537 63.683994,339.646515 62.412987,339.772888 
	C60.246964,339.988342 57.435535,338.464661 55.643047,336.844391 
	C48.723495,330.589569 41.928082,324.172150 35.475365,317.442352 
	C33.650116,315.538727 32.194481,312.370483 32.182220,309.774597 
	C31.981487,267.281647 32.036442,224.787460 32.043182,182.293564 
	C32.044163,176.117493 33.697983,174.512360 39.866001,175.693024 
	C49.511127,177.539291 59.080791,179.779724 69.104836,181.920715 
z"/>
<path fill="#FE014F" opacity="1.000000" stroke="none" 
	d="
M261.503906,234.503143 
	C278.362518,252.964386 292.225342,273.001007 302.797272,295.334229 
	C309.278870,309.026611 320.103363,319.262665 331.195557,329.182159 
	C333.182343,330.958923 335.317963,332.576263 337.234222,334.423492 
	C343.561554,340.522919 344.077789,350.068939 338.511749,356.529999 
	C332.940674,362.996918 323.381470,363.972290 316.476135,358.438263 
	C311.671844,354.588013 307.169250,350.352631 302.626587,346.186005 
	C283.449280,328.596161 264.870972,310.418488 249.113068,289.610260 
	C233.545456,269.053284 226.228210,245.433655 224.362427,220.013367 
	C224.180161,217.530151 225.861755,213.760468 227.853928,212.591324 
	C229.838089,211.426910 234.090652,211.760986 235.984497,213.214890 
	C244.671936,219.884216 252.881317,227.176270 261.503906,234.503143 
z"/>
<path fill="#9EAACD" opacity="1.000000" stroke="none" 
	d="
M121.916779,126.076294 
	C110.506401,122.274124 99.393570,118.787552 88.474068,114.774864 
	C86.026291,113.875351 83.468018,111.523537 82.305885,109.174713 
	C76.543076,97.527359 66.612976,91.793358 54.613857,89.106155 
	C47.493172,87.511475 40.186466,86.747406 32.436420,85.526878 
	C32.318153,84.310196 32.064240,82.888718 32.060062,81.466499 
	C32.026779,70.144203 31.867754,58.816902 32.185490,47.503445 
	C32.249577,45.221413 33.645737,42.427345 35.337986,40.839329 
	C41.399792,35.150898 48.819328,33.301777 57.050674,34.389965 
	C98.784927,39.907261 124.987091,63.470356 135.889145,105.505348 
	C137.222580,110.646721 138.291687,115.898521 138.937637,121.166046 
	C139.803436,128.226471 135.906250,131.187454 129.273407,128.886566 
	C126.916801,128.069061 124.612404,127.101097 121.916779,126.076294 
z"/>
<path fill="#9EAACD" opacity="1.000000" stroke="none" 
	d="
M83.763794,129.445221 
	C85.644402,142.549347 87.487534,155.236511 89.216179,167.939240 
	C90.191299,175.104813 87.231018,178.269791 80.235374,177.032913 
	C65.319389,174.395660 50.444622,171.513000 35.604889,168.477112 
	C34.230892,168.196030 32.213394,166.105911 32.203999,164.843048 
	C32.028042,141.188629 32.108257,117.532288 32.158325,93.876404 
	C32.159313,93.410362 32.442284,92.944908 32.589962,92.490654 
	C57.322117,95.223190 76.407837,101.694984 83.763794,129.445221 
z"/>
<path fill="#9EAACD" opacity="1.000000" stroke="none" 
	d="
M131.141449,158.874878 
	C137.341110,168.727493 144.574341,177.758774 149.012848,188.001114 
	C156.347183,204.925903 165.751602,220.114685 178.530670,233.344162 
	C181.030075,235.931656 185.308258,238.692719 182.429169,243.009903 
	C179.408691,247.539078 175.097229,244.480789 171.575485,243.193573 
	C153.989944,236.766006 138.304153,227.184799 124.865501,214.087143 
	C117.549255,206.956573 113.348305,198.441376 110.605057,188.351089 
	C106.431503,172.999771 100.157196,158.216217 94.686119,143.224014 
	C93.661980,140.417587 91.921425,137.851929 91.079765,135.007034 
	C90.545830,133.202301 91.062759,131.086639 91.108414,129.110428 
	C92.938095,129.362686 95.059044,129.101257 96.551888,129.947632 
	C109.721405,137.414352 121.094467,147.090683 131.141449,158.874878 
z"/>
<path fill="#9EAACD" opacity="1.000000" stroke="none" 
	d="
M127.467880,134.387634 
	C166.124741,143.405960 193.085648,166.182037 209.171936,201.918472 
	C211.690109,207.512726 213.735474,213.387970 215.271866,219.321671 
	C215.867325,221.621338 215.242477,225.275269 213.689362,226.767151 
	C212.428482,227.978317 208.602554,227.634659 206.514435,226.674805 
	C197.768402,222.654572 190.606064,216.674408 184.658218,208.920319 
	C181.293396,204.533691 176.364105,201.370117 172.284744,197.502441 
	C167.615570,193.075592 161.894028,189.187439 158.760208,183.821106 
	C149.859863,168.580109 139.263321,154.823273 126.866348,142.360046 
	C124.177528,139.656860 122.586365,136.966171 127.467880,134.387634 
z"/>
<path fill="#FD014F" opacity="1.000000" stroke="none" 
	d="
M240.068420,298.934723 
	C249.277130,308.110504 258.241180,317.029205 267.145874,326.006744 
	C268.426422,327.297729 269.835999,328.718903 270.440857,330.355164 
	C271.160553,332.302124 271.075653,334.546539 271.339355,336.662048 
	C269.351898,336.736877 267.061859,337.496796 265.426361,336.774536 
	C255.386063,332.340576 245.322067,327.900024 235.600876,322.820648 
	C226.030212,317.819855 216.712997,312.289703 207.540329,306.580872 
	C189.997208,295.662445 181.326523,278.287994 174.567154,259.742096 
	C172.636734,254.445602 177.391541,249.627945 182.678787,251.778564 
	C188.130310,253.995987 193.621399,256.914276 198.030182,260.750031 
	C212.219391,273.094971 225.917343,286.004608 240.068420,298.934723 
z"/>
<path fill="#9EAACC" opacity="1.000000" stroke="none" 
	d="
M77.175217,405.128357 
	C74.959145,412.363342 72.973633,419.239777 70.653152,426.001221 
	C68.916100,431.062683 65.849510,432.451447 60.470306,431.194794 
	C44.511650,427.466675 43.671440,426.594635 48.846443,411.167877 
	C56.357651,388.776917 64.492989,366.594299 72.510910,344.376526 
	C73.079979,342.799652 74.868813,341.662933 76.090462,340.321564 
	C76.726578,341.892426 77.872421,343.447937 77.920135,345.036469 
	C78.409271,361.322235 78.840775,377.612244 78.987442,393.903809 
	C79.019859,397.503845 77.868301,401.114594 77.175217,405.128357 
z"/>
<path fill="#9EAACD" opacity="1.000000" stroke="none" 
	d="
M50.268814,377.323273 
	C47.131508,387.573120 44.127510,397.445679 41.095264,407.309570 
	C39.634396,412.061798 37.441025,414.110504 32.368603,415.352509 
	C32.368603,386.882324 32.368603,358.491486 32.368603,329.446564 
	C33.702625,330.244904 34.841736,330.746643 35.765369,331.509338 
	C40.773945,335.645325 45.809990,339.754211 50.681164,344.048737 
	C55.951195,348.694977 57.522991,354.450134 55.308632,361.215210 
	C53.600090,366.434998 52.024971,371.698425 50.268814,377.323273 
z"/>
<path fill="#FA0250" opacity="1.000000" stroke="none" 
	d="
M225.528320,266.140961 
	C224.662979,269.965149 222.597198,269.856171 220.613434,267.669189 
	C213.821625,260.181580 207.062637,252.655060 200.566910,244.912033 
	C197.501038,241.257507 199.485245,237.368759 204.266327,236.892197 
	C212.432678,236.078186 215.161057,238.107147 217.784821,245.863953 
	C220.062042,252.596222 222.871964,259.148315 225.528320,266.140961 
z"/>
<path fill="#000000" opacity="1.000000" stroke="none" 
	d="
M427.471558,407.456543 
	C427.012451,407.237366 426.753082,406.837158 426.493713,406.436951 
	C426.936310,406.450897 427.378937,406.464874 427.945496,406.695374 
	C427.936768,407.033142 427.804016,407.154327 427.471558,407.456543 
z"/>
<path fill="#000000" opacity="1.000000" stroke="none" 
	d="
M412.933868,423.566315 
	C412.579620,423.435120 412.440033,423.195557 412.300446,422.955963 
	C412.583130,423.123291 412.865814,423.290619 412.933868,423.566315 
z"/>
<path fill="#000000" opacity="1.000000" stroke="none" 
	d="
M391.097321,439.874756 
	C390.674255,439.689026 390.434662,439.305298 390.195068,438.921570 
	C390.564941,438.924347 390.934845,438.927094 391.475464,439.104584 
	C391.524445,439.411743 391.402618,439.544220 391.097321,439.874756 
z"/>
</svg>