<svg xmlns="http://www.w3.org/2000/svg" viewBox="0 0 64 64" fill="none"><path fill="#a5b4fc" d="M24 14c3 0 5 2 7 5 2 4 3 8 3 13s-1 9-3 13c-2 3-4 5-7 5s-5-2-7-5c-2-4-3-8-3-13s1-9 3-13c2-3 4-5 7-5Z"/><path stroke="#3730a3" stroke-width="2" d="M24 14c3 0 5 2 7 5 2 4 3 8 3 13s-1 9-3 13c-2 3-4 5-7 5s-5-2-7-5c-2-4-3-8-3-13s1-9 3-13c2-3 4-5 7-5Z"/><path fill="#a5b4fc" d="M40 14c3 0 5 2 7 5 2 4 3 8 3 13s-1 9-3 13c-2 3-4 5-7 5s-5-2-7-5c-2-4-3-8-3-13s1-9 3-13c2-3 4-5 7-5Z"/><path stroke="#3730a3" stroke-width="2" d="M40 14c3 0 5 2 7 5 2 4 3 8 3 13s-1 9-3 13c-2 3-4 5-7 5s-5-2-7-5c-2-4-3-8-3-13s1-9 3-13c2-3 4-5 7-5Z"/></svg>