<svg xmlns="http://www.w3.org/2000/svg" viewBox="0 0 64 64" fill="none"><path fill="#86efac" d="M22 12c4 0 7 2 9 6 2 3 3 7 3 12 0 4-1 8-3 12-2 4-5 6-9 6-3 0-6-2-8-6-2-4-3-8-3-12 0-5 1-9 3-12 2-4 5-6 8-6Z"/><path stroke="#166534" stroke-width="2" d="M22 12c4 0 7 2 9 6 2 3 3 7 3 12 0 4-1 8-3 12-2 4-5 6-9 6-3 0-6-2-8-6-2-4-3-8-3-12 0-5 1-9 3-12 2-4 5-6 8-6Z"/><path fill="#86efac" d="M42 12c4 0 7 2 9 6 2 3 3 7 3 12 0 4-1 8-3 12-2 4-5 6-9 6-3 0-6-2-8-6-2-4-3-8-3-12 0-5 1-9 3-12 2-4 5-6 8-6Z"/><path stroke="#166534" stroke-width="2" d="M42 12c4 0 7 2 9 6 2 3 3 7 3 12 0 4-1 8-3 12-2 4-5 6-9 6-3 0-6-2-8-6-2-4-3-8-3-12 0-5 1-9 3-12 2-4 5-6 8-6Z"/></svg>