<?xml version="1.0" encoding="UTF-8"?>
<svg version="1.1" xmlns="http://www.w3.org/2000/svg" width="512" height="512">
<path d="M0 0 C3.21820859 2.72913618 3.43944111 5.73224815 3.97314453 9.71826172 C4.09450272 10.48935776 4.2158609 11.2604538 4.34089661 12.05491638 C4.72474657 14.52207867 5.07815097 16.99247143 5.43017578 19.46435547 C5.67745486 21.1007373 5.92678309 22.73681088 6.17822266 24.37255859 C6.29943481 25.16766342 6.42064697 25.96276825 6.54553223 26.78196716 C6.78795959 28.35811986 7.0341057 29.9337053 7.28405762 31.50868225 C7.78457631 34.69127528 8.23616801 37.80557214 8.45361328 41.02270508 C8.82741037 45.04906651 9.34703191 47.09812419 12.41235352 49.84887695 C15.48008328 51.88344593 18.61249863 53.62058899 21.86767578 55.33935547 C23.06851753 56.00563188 24.26729241 56.6756453 25.46411133 57.34912109 C28.02619664 58.78817213 30.59605542 60.211848 33.17089844 61.62792969 C39.53552088 65.15370558 45.75591673 68.92561764 51.99505615 72.66726685 C57.72946625 76.1037845 63.4790175 79.51463181 69.24267578 82.90185547 C69.86689423 83.26884552 70.49111267 83.63583557 71.13424683 84.01394653 C77.67355196 87.84492123 84.13412033 91.51634302 91.18017578 94.33935547 C114.16441059 104.02977828 133.29174568 119.4086456 143.35839844 142.65869141 C146.06625711 149.52777078 147.74461603 156.68713563 149.24267578 163.90185547 C149.61199219 165.67882812 149.61199219 165.67882812 149.98876953 167.49169922 C152.46863291 182.422187 152.54438849 198.83266038 150.11376953 213.7487793 C148.89098259 220.23136646 148.89098259 220.23136646 150.53955078 226.43310547 C152.47782371 228.57871688 152.47782371 228.57871688 154.75439453 230.52294922 C175.19980892 250.06966407 183.96526659 285.73732517 184.69189453 312.83154297 C184.76138839 316.04225647 184.81993557 319.25275112 184.86743164 322.46386719 C184.90920201 324.66940792 184.97067607 326.87466495 185.05200195 329.07910156 C185.75039835 348.37788206 185.75039835 348.37788206 182.24902344 353.39111328 C179.72965836 355.94184375 177.21724537 357.91089775 174.24267578 359.90185547 C172.90293882 361.0385733 171.57860864 362.19381951 170.27392578 363.37060547 C169.63197266 363.92103516 168.99001953 364.47146484 168.32861328 365.03857422 C163.94124878 368.95762453 159.87119954 373.21409895 155.74267578 377.40185547 C150.27195666 382.9510641 144.80667906 388.39707279 138.88232422 393.46289062 C136.97860433 395.13360609 135.29455907 396.94318744 133.61767578 398.83935547 C131.35324239 401.08838455 130.2768055 401.89001455 127.18017578 402.96435547 C121.98358158 401.08473629 120.50872138 396.7145047 118.24267578 391.90185547 C111.8297363 377.83434951 106.55577174 363.50773171 105.94970703 347.93310547 C105.41754568 334.78697696 104.16610717 326.82502335 94.65429688 317.40527344 C92.20196781 314.79347089 90.26535878 311.85298312 88.24267578 308.90185547 C75.3504484 324.67623945 65.54108033 338.75290236 67.24267578 359.90185547 C68.41038892 369.13574859 70.17908004 378.29542734 71.82470703 387.45336914 C74.14097098 400.4419768 75.79257708 412.71163315 75.24267578 425.90185547 C75.21303076 427.25325612 75.1873419 428.6047491 75.16552734 429.95629883 C75.1004051 433.8768413 74.9869847 437.7950575 74.86767578 441.71435547 C74.85220703 442.37508057 74.83673828 443.03580566 74.82080078 443.71655273 C74.77524412 445.66006622 74.71619176 447.6032487 74.65673828 449.54638672 C74.62531738 450.67407471 74.59389648 451.8017627 74.56152344 452.96362305 C74.23878194 455.93773781 74.01692954 457.51258286 72.24267578 459.90185547 C69.62670898 461.59008789 69.62670898 461.59008789 66.29345703 463.25732422 C65.69274887 463.56040497 65.09204071 463.86348572 64.47312927 464.17575073 C62.50713455 465.16105477 60.53219254 466.12637865 58.55517578 467.08935547 C57.88095581 467.42200409 57.20673584 467.75465271 56.51208496 468.09738159 C44.35187163 474.09153571 32.01412719 479.33903814 19.24267578 483.90185547 C18.46069824 484.18851074 17.6787207 484.47516602 16.87304688 484.77050781 C-34.14174119 503.39599708 -82.67655739 497.76964744 -131.66577148 475.2668457 C-134.03580102 474.15763835 -136.39833157 473.03433116 -138.75732422 471.90185547 C-139.88968506 471.35948242 -139.88968506 471.35948242 -141.04492188 470.80615234 C-159.98571195 461.67346774 -159.98571195 461.67346774 -163.75732422 457.90185547 C-168.34995225 431.08056614 -165.68571499 404.15267519 -160.65405273 377.65429688 C-157.14506066 359.07787621 -154.98879617 342.534934 -165.75732422 325.90185547 C-168.29562092 322.20536843 -170.9101942 318.56515957 -173.55029297 314.94091797 C-174.99190562 312.9558301 -176.3964624 310.94314819 -177.75732422 308.90185547 C-178.39798828 309.66369141 -179.03865234 310.42552734 -179.69873047 311.21044922 C-180.3224353 311.95210327 -180.3224353 311.95210327 -180.95874023 312.70874023 C-181.87548731 313.8070279 -182.78603548 314.91051616 -183.69067383 316.01879883 C-185.69835185 318.47570769 -187.66990685 320.81662354 -189.94482422 323.03466797 C-195.35986625 328.60764873 -195.35679055 333.80430159 -195.48925781 341.19262695 C-195.84410809 359.42174233 -201.15928693 388.30381818 -214.75732422 401.90185547 C-217.51513672 402.24951172 -217.51513672 402.24951172 -220.75732422 401.90185547 C-223.24951172 399.96044922 -223.24951172 399.96044922 -225.63232422 397.33935547 C-228.59849938 394.18252929 -231.51251691 391.13835407 -234.81982422 388.33935547 C-238.59351679 385.11235478 -242.04925879 381.62649813 -245.53466797 378.09326172 C-248.18433861 375.48084479 -250.96905225 373.06882926 -253.79248047 370.64794922 C-256.56959255 368.1800186 -259.14260239 365.52744665 -261.74560547 362.87841797 C-264.31454054 360.35437691 -267.02931381 358.03624726 -269.80029297 355.73779297 C-277.00932908 348.97482496 -277.00932908 348.97482496 -277.37255859 343.23950195 C-277.39198631 341.4174072 -277.38315121 339.59486518 -277.35107422 337.77294922 C-277.3511145 336.78802994 -277.35115479 335.80311066 -277.35119629 334.78834534 C-277.34584217 332.6995711 -277.32826416 330.6107973 -277.29931641 328.5222168 C-277.25814218 325.40135373 -277.25819933 322.28270499 -277.26513672 319.16162109 C-277.21330356 302.37959437 -276.35868538 285.02957892 -270.63232422 269.08935547 C-270.33374512 268.23100098 -270.03516602 267.37264648 -269.72753906 266.48828125 C-265.21362977 254.05482776 -257.9498803 238.48332016 -246.91967773 230.58618164 C-243.44742997 227.87567809 -241.91039703 226.0634029 -241.32275391 221.60424805 C-241.3581074 218.22130656 -241.50213311 214.89794026 -241.7723999 211.52819824 C-242.06472087 207.81732582 -242.22630745 204.10023835 -242.40185547 200.38232422 C-242.43927856 199.64716583 -242.47670166 198.91200745 -242.51525879 198.15457153 C-243.74258307 172.43376297 -238.39742752 141.07646025 -220.72216797 121.45654297 C-207.58100258 107.46547977 -191.84135637 98.55714139 -174.36279297 90.99951172 C-169.54375789 88.86659696 -165.00363252 86.35146732 -160.44482422 83.71435547 C-159.55674072 83.20388672 -158.66865723 82.69341797 -157.75366211 82.16748047 C-148.79180755 76.9820627 -139.9329269 71.62330745 -131.11206055 66.20214844 C-125.65623347 62.85234475 -120.18943251 59.54938203 -114.59716797 56.42919922 C-113.66718994 55.90197266 -112.73721191 55.37474609 -111.77905273 54.83154297 C-110.07136004 53.86877037 -108.35231536 52.92573623 -106.62036133 52.00732422 C-105.86891846 51.57935547 -105.11747559 51.15138672 -104.34326172 50.71044922 C-103.36945557 50.18149048 -103.36945557 50.18149048 -102.37597656 49.6418457 C-98.25305816 45.20986389 -98.17420238 36.71834484 -97.31982422 30.87841797 C-97.06226067 29.18176557 -96.80444089 27.48515206 -96.54638672 25.78857422 C-96.14824992 23.142397 -95.75275052 20.49588418 -95.36181641 17.84863281 C-94.98001577 15.27408385 -94.58812379 12.70123163 -94.19482422 10.12841797 C-94.08017822 9.33263336 -93.96553223 8.53684875 -93.84741211 7.71694946 C-92.98410073 2.12863198 -92.98410073 2.12863198 -90.75732422 -0.09814453 C-62.88051837 -8.34777331 -27.46594034 -10.93871079 0 0 Z " fill="#494F69" transform="translate(300.75732421875,11.09814453125)"/>
<path d="M0 0 C4.76662096 1.77145816 6.562098 5.05357611 9.3203125 9.1875 C9.88089355 9.99550049 10.44147461 10.80350098 11.01904297 11.63598633 C12.18515284 13.31834787 13.34410601 15.00569102 14.49609375 16.69775391 C16.08459471 19.02527298 17.69504373 21.3347716 19.3203125 23.63671875 C19.81700439 24.34070801 20.31369629 25.04469727 20.82543945 25.77001953 C21.82863556 27.18265335 22.83767934 28.59115114 23.85229492 29.99560547 C26.20925823 33.27456072 28.42512424 36.51792254 30.37109375 40.05859375 C37.65400713 52.58151393 50.03644064 57.54881123 62.62719727 63.51298523 C68.66479996 66.37773544 74.53286969 69.51992316 80.3828125 72.75 C81.23528564 73.2143042 82.08775879 73.6786084 82.96606445 74.15698242 C85.38651008 75.48240163 87.79343995 76.82873749 90.1953125 78.1875 C91.11344727 78.70280273 92.03158203 79.21810547 92.97753906 79.74902344 C93.88342773 80.27141602 94.78931641 80.79380859 95.72265625 81.33203125 C96.54628662 81.80358643 97.36991699 82.2751416 98.21850586 82.76098633 C100.1953125 84.1875 100.1953125 84.1875 101.5703125 87.3125 C101.09021722 90.99323047 99.9665445 91.78859338 97.1953125 94.1875 C95.51737364 95.1390468 93.80563434 96.03263532 92.0703125 96.875 C76.41245336 105.18410392 66.05979114 119.95485796 60.71484375 136.59765625 C60.26050009 138.12456742 59.81630135 139.65453774 59.3828125 141.1875 C59.18800293 141.87384521 58.99319336 142.56019043 58.79248047 143.26733398 C55.02990727 157.5767148 55.00346814 171.4599705 55.38720703 186.11767578 C55.44792528 188.60712383 55.48320232 191.09598237 55.515625 193.5859375 C55.54254425 194.33193207 55.5694635 195.07792664 55.59719849 195.8465271 C55.66761508 203.29714846 52.45752187 208.72211499 48.19921875 214.67578125 C47.64766113 215.4541333 47.09610352 216.23248535 46.52783203 217.03442383 C45.94372559 217.84806396 45.35961914 218.6617041 44.7578125 219.5 C43.49519366 221.28061209 42.23349559 223.06187741 40.97265625 224.84375 C40.33827637 225.73835937 39.70389648 226.63296875 39.05029297 227.5546875 C36.26494961 231.50798346 33.54064461 235.50181368 30.8203125 239.5 C23.94339614 249.58834166 16.96277732 259.60368868 9.98242188 269.62060547 C6.37529607 274.80166022 2.78409812 279.9937297 -0.8046875 285.1875 C-2.4546875 284.8575 -4.1046875 284.5275 -5.8046875 284.1875 C-5.87481603 261.3954088 -5.92769454 238.60333544 -5.96012402 215.81115818 C-5.97558283 205.22799126 -5.99665354 194.64489143 -6.03100586 184.06176758 C-6.06093835 174.83587677 -6.08026967 165.61003458 -6.08695298 156.38409656 C-6.09085871 151.5005208 -6.10001723 146.61708407 -6.12187767 141.73355293 C-6.14230362 137.13302478 -6.14850897 132.53269238 -6.14401054 127.93212318 C-6.14483302 126.24754522 -6.15076218 124.56296041 -6.16230392 122.87842178 C-6.24416612 110.30951027 -5.10149797 100.25713322 3.1953125 90.1875 C6.07452087 87.3647467 9.07133971 84.73527336 12.1953125 82.1875 C11.83179688 81.76339844 11.46828125 81.33929688 11.09375 80.90234375 C10.02986884 79.66114907 8.96889947 78.41745525 7.91015625 77.171875 C6.84056251 75.93416743 5.75218027 74.71216016 4.63671875 73.515625 C-2.06170909 66.20824918 -5.88747546 58.03817998 -5.96582031 48.07763672 C-5.97542786 47.08665985 -5.9850354 46.09568298 -5.99493408 45.07467651 C-5.99918396 44.01620514 -6.00343384 42.95773376 -6.0078125 41.8671875 C-6.01351257 40.77157501 -6.01921265 39.67596252 -6.02508545 38.54714966 C-6.03451529 36.23570721 -6.0410614 33.92425143 -6.04492188 31.61279297 C-6.05467113 28.06845011 -6.08573149 24.5246767 -6.1171875 20.98046875 C-6.12371363 18.73437844 -6.12896563 16.48828399 -6.1328125 14.2421875 C-6.1513327 12.64840775 -6.1513327 12.64840775 -6.17022705 11.02243042 C-6.16722595 10.03775787 -6.16422485 9.05308533 -6.16113281 8.03857422 C-6.16477844 7.17207245 -6.16842407 6.30557068 -6.17218018 5.41281128 C-5.52854235 1.51533358 -3.85419085 0.25766178 0 0 Z " fill="#FE004F" transform="translate(264.8046875,20.8125)"/>
<path d="M0 0 C5.56818182 0.56818182 5.56818182 0.56818182 7 2 C7.11949364 3.59292867 7.1701265 5.19108772 7.19287109 6.78833008 C7.20893402 7.8106221 7.22499695 8.83291412 7.24154663 9.88618469 C7.28608088 14.6108848 7.32714186 19.33544109 7.35009766 24.06030273 C7.36656915 26.54216954 7.39374058 29.02399067 7.43212891 31.50561523 C7.48735078 35.09383641 7.50885081 38.68094025 7.5234375 42.26953125 C7.54610687 43.36376907 7.56877625 44.4580069 7.59213257 45.58540344 C7.56001001 57.49839005 3.10459905 67.32309441 -5 76 C-6.65975389 77.34192868 -8.32346641 78.67909475 -10 80 C-10.353105 83.00921995 -10.353105 83.00921995 -8.4609375 84.54296875 C-7.77257812 85.08566406 -7.08421875 85.62835938 -6.375 86.1875 C0.51783996 92.00676488 5.06281599 98.02297271 7 107 C7.42894501 112.78861397 7.37986973 118.56009442 7.34057617 124.36157227 C7.33972896 126.11657191 7.34020688 127.87157262 7.34190369 129.62657166 C7.34276139 134.36978326 7.32517216 139.11276542 7.30418181 143.85592389 C7.2853774 148.82068026 7.28366161 153.78544239 7.28010559 158.75022888 C7.27079617 168.14229419 7.24619733 177.53425424 7.21605712 186.92627329 C7.18247875 197.62275698 7.16601846 208.31924581 7.15097082 219.01576912 C7.11964679 241.01057141 7.06690778 263.00527906 7 285 C2.99267147 284.45946493 2.21115554 284.23893086 -0.61328125 281.04296875 C-1.52800733 279.76843585 -2.42694188 278.48246901 -3.3125 277.1875 C-3.79759033 276.50171875 -4.28268066 275.8159375 -4.7824707 275.109375 C-8.14227954 270.33236399 -11.38773439 265.47894642 -14.59375 260.59765625 C-17.87229302 255.65213162 -21.29219637 250.8031606 -24.6875 245.9375 C-29.86139042 238.51899652 -35.01844117 231.09004888 -40.125 223.625 C-40.63248779 222.8837085 -41.13997559 222.14241699 -41.6628418 221.37866211 C-43.11306876 219.25546818 -44.55699961 217.1281102 -46 215 C-46.82322754 213.79682129 -46.82322754 213.79682129 -47.66308594 212.56933594 C-48.47567871 211.37099121 -48.47567871 211.37099121 -49.3046875 210.1484375 C-50.04307861 209.0644165 -50.04307861 209.0644165 -50.79638672 207.95849609 C-53.44867016 203.64275213 -53.18367933 199.30924416 -53.24609375 194.4140625 C-53.27907912 192.66015214 -53.31228985 190.90624601 -53.34570312 189.15234375 C-53.392727 186.40351787 -53.43707064 183.65470288 -53.47680664 180.90576172 C-53.63531139 170.44444818 -53.96707702 160.30191058 -56 150 C-56.13494873 149.26265625 -56.26989746 148.5253125 -56.40893555 147.765625 C-59.85630249 129.87562827 -68.57883654 111.92439008 -83.33203125 100.78515625 C-87.00481393 98.32767208 -90.81295886 96.2286374 -94.75 94.2265625 C-97 93 -97 93 -99 91 C-99.4375 88.125 -99.4375 88.125 -99 85 C-95.38103019 81.60570277 -91.22377017 79.35583519 -86.84765625 77.09375 C-86.15876816 76.73187592 -85.46988007 76.37000183 -84.76011658 75.99716187 C-82.53004192 74.82666782 -80.29631766 73.66333218 -78.0625 72.5 C-74.98954163 70.89057685 -71.91849917 69.27751761 -68.84765625 67.6640625 C-68.08893219 67.26599396 -67.33020813 66.86792542 -66.54849243 66.45779419 C-59.06689567 62.52551116 -51.65428706 58.47243145 -44.27368164 54.35351562 C-43.4614917 53.90427734 -42.64930176 53.45503906 -41.8125 52.9921875 C-41.11769531 52.60401855 -40.42289063 52.21584961 -39.70703125 51.81591797 C-38 51 -38 51 -36 51 C-35.67322266 49.98873047 -35.67322266 49.98873047 -35.33984375 48.95703125 C-33.5867464 45.08795052 -31.16132024 42.02738209 -28.5625 38.6875 C-24.31958499 33.14149102 -20.23034552 27.5303247 -16.3125 21.75 C-4.7995 4.7995 -4.7995 4.7995 0 0 Z " fill="#FE004F" transform="translate(243,21)"/>
<path d="M0 0 C3.08408508 2.51465158 5.0310987 4.89322391 7.2734375 8.17578125 C7.6849707 8.77052246 8.09650391 9.36526367 8.52050781 9.97802734 C9.45718979 11.33307593 10.38918536 12.69137163 11.31738281 14.05224609 C13.72251923 17.56784544 16.16455525 21.05755035 18.60131836 24.55126953 C20.67142589 27.52126281 22.73656037 30.49466301 24.80078125 33.46875 C28.00691331 38.08506682 31.22489014 42.69284251 34.45385742 47.29321289 C35.61493095 48.95020694 36.77271086 50.6095143 37.92700195 52.27124023 C40.64264262 56.17780618 43.39146376 60.04410774 46.25 63.84765625 C46.77166748 64.55865479 47.29333496 65.26965332 47.83081055 66.00219727 C48.79680254 67.31698053 49.78130331 68.6184748 50.78833008 69.90209961 C53.2134892 73.24899311 54.25211472 75.69825476 54.06640625 79.87890625 C53.15714369 85.03249024 50.45403442 87.89135255 46.7734375 91.42578125 C45.57742938 92.63994017 44.38211045 93.85477839 43.1875 95.0703125 C42.61418945 95.64088379 42.04087891 96.21145508 41.45019531 96.79931641 C39.59672539 98.6673668 37.85942106 100.61443079 36.1484375 102.61328125 C33.60132312 105.5638989 31.01091513 108.47026911 28.3984375 111.36328125 C23.59935958 116.68662818 18.857658 122.05191464 14.21875 127.515625 C8.55456429 134.17750106 2.81167862 140.73005896 -3.18041992 147.1003418 C-5.66163476 149.74818954 -7.99859366 152.40354733 -10.1015625 155.36328125 C-12.0546875 154.6484375 -12.0546875 154.6484375 -14.1015625 153.36328125 C-14.6484375 151.359375 -14.6484375 151.359375 -14.8515625 148.80078125 C-17.17488197 133.83473169 -26.87845925 120.50980456 -34.69140625 107.8984375 C-48.48461061 85.61945541 -59.7943977 62.95220157 -61.1015625 36.36328125 C-61.14087891 35.63383301 -61.18019531 34.90438477 -61.22070312 34.15283203 C-61.33736881 31.74388333 -61.4119163 29.33664721 -61.4765625 26.92578125 C-61.53384521 25.77142578 -61.53384521 25.77142578 -61.59228516 24.59375 C-61.6516364 20.55432186 -61.44167091 18.83498301 -59.01171875 15.46484375 C-55.70021971 13.0734525 -53.1228422 12.1767111 -49.1640625 11.17578125 C-43.21003239 9.59600134 -37.35318345 7.81495377 -31.5234375 5.82421875 C-30.85875961 5.59790268 -30.19408173 5.37158661 -29.50926208 5.13841248 C-26.80625507 4.2160666 -24.10424571 3.29128899 -21.40725708 2.35147095 C-19.49168713 1.68473838 -17.57206318 1.02968911 -15.65234375 0.375 C-14.53512939 -0.01212158 -13.41791504 -0.39924316 -12.2668457 -0.7980957 C-7.51991018 -2.05576817 -4.3814972 -2.31215028 0 0 Z " fill="#9EAACD" transform="translate(184.1015625,233.63671875)"/>
<path d="M0 0 C0.69077637 0.2346698 1.38155273 0.4693396 2.09326172 0.71112061 C4.29437354 1.46033377 6.49105735 2.22159366 8.6875 2.984375 C11.56086716 3.97356697 14.43638606 4.95632827 17.3125 5.9375 C18.01576416 6.18012573 18.71902832 6.42275146 19.44360352 6.67272949 C25.14014197 8.61516544 30.88012809 10.16690503 36.734375 11.57324219 C40.40596968 13.01686854 42.25341548 14.63999799 44.6875 17.734375 C45.30273438 20.43481445 45.30273438 20.43481445 45.28125 23.34765625 C45.28116943 24.42265381 45.28108887 25.49765137 45.28100586 26.60522461 C45.23472046 28.30884155 45.23472046 28.30884155 45.1875 30.046875 C45.15765015 31.80366577 45.15765015 31.80366577 45.12719727 33.59594727 C44.3495024 63.48047104 31.02317696 88.32097717 15.40625 113.11376953 C11.93593937 118.64353434 8.63627849 124.22410637 5.5625 129.984375 C5.20849121 130.63889648 4.85448242 131.29341797 4.48974609 131.96777344 C0.86251832 138.90264945 -1.48422189 145.94856078 -2.3125 153.734375 C-6.3125 153.734375 -6.3125 153.734375 -7.98828125 152.484375 C-8.52839844 151.906875 -9.06851563 151.329375 -9.625 150.734375 C-10.53958984 149.76564453 -10.53958984 149.76564453 -11.47265625 148.77734375 C-13.77560181 146.22014517 -16.0497843 143.64157902 -18.296875 141.03515625 C-20.75730269 138.2266448 -23.28224992 135.47975621 -25.8125 132.734375 C-29.41282448 128.82474221 -32.95668014 124.87570561 -36.4375 120.859375 C-38.85800075 118.11614082 -41.33450642 115.42552932 -43.8125 112.734375 C-47.40640441 108.83131753 -50.94634621 104.89112208 -54.41796875 100.87890625 C-57.41521432 97.48614786 -60.49674745 94.17017298 -63.58203125 90.85742188 C-67.7829826 86.31633669 -69.97589597 83.50049782 -69.81689453 77.29443359 C-68.79398805 72.10266333 -65.37428733 68.19628005 -62.25 64.046875 C-60.77475736 62.01134685 -59.30083117 59.97486405 -57.828125 57.9375 C-57.07466797 56.90818359 -56.32121094 55.87886719 -55.54492188 54.81835938 C-52.09205947 50.0483946 -48.79664872 45.17548696 -45.5 40.296875 C-44.26098244 38.47487554 -43.02141214 36.65325183 -41.78125 34.83203125 C-41.19472656 33.96980957 -40.60820312 33.10758789 -40.00390625 32.21923828 C-36.22469186 26.6671534 -32.43337294 21.1238178 -28.60644531 15.60449219 C-27.71466712 14.31562031 -26.82618722 13.02446219 -25.94042969 11.73144531 C-24.59383286 9.76801414 -23.23587205 7.81292969 -21.875 5.859375 C-21.47369873 5.26962891 -21.07239746 4.67988281 -20.65893555 4.07226562 C-14.95467568 -4.03981647 -8.74872467 -3.08411611 0 0 Z " fill="#9EAACD" transform="translate(341.3125,234.265625)"/>
<path d="M0 0 C3.72089202 0.56410025 4.9948646 2.19103849 7.5546875 4.90625 C8.42738281 5.8240625 9.30007813 6.741875 10.19921875 7.6875 C12.80681523 10.54558999 15.39182964 13.41449775 17.91015625 16.3515625 C21.42648715 20.43454275 25.06914178 24.40668925 28.6796875 28.40625 C30.92765727 30.90312992 33.17476757 33.40078151 35.421875 35.8984375 C36.94676994 37.59217894 38.47284152 39.28486169 40 40.9765625 C43.97323212 45.38078929 47.91344506 49.80842594 51.8046875 54.28515625 C54.04163438 56.81570241 56.33035648 59.29571567 58.6171875 61.78125 C69.0795264 73.25142888 73.16182177 78.98044508 72.6796875 94.40625 C72.42219427 99.96970472 72.01124189 105.52036521 71.56274414 111.07128906 C71.36471852 113.562308 71.18707661 116.05430579 71.00976562 118.546875 C70.88404472 120.1485347 70.75713621 121.75010172 70.62890625 123.3515625 C70.57876877 124.08803009 70.52863129 124.82449768 70.47697449 125.58328247 C70.10175047 129.92259371 69.31459514 132.9143598 66.6796875 136.40625 C62.75842631 139.29560035 59.27664595 139.5895776 54.5546875 139.84375 C37.73373827 140.83771518 25.29458659 149.37734616 13.16015625 160.28515625 C12.00057161 161.32615791 10.84043483 162.36654494 9.6796875 163.40625 C9.12909668 163.90116943 8.57850586 164.39608887 8.01123047 164.90600586 C5.34210548 167.23271292 4.01946885 168.3605102 0.4296875 168.84375 C-2.3203125 168.40625 -2.3203125 168.40625 -4.3203125 166.40625 C-4.57199478 163.60449219 -4.57199478 163.60449219 -4.57427979 159.953125 C-4.57739977 159.28312469 -4.58051975 158.61312439 -4.58373427 157.92282104 C-4.59174153 155.66720911 -4.58538018 153.41186417 -4.57910156 151.15625 C-4.58181022 149.54345542 -4.58537044 147.93066208 -4.58972168 146.31787109 C-4.59886288 141.92953476 -4.59529433 137.54129214 -4.58896351 133.1529541 C-4.58391245 128.5681126 -4.58859246 123.98327931 -4.59173584 119.3984375 C-4.5953781 111.69790196 -4.59056958 103.99740473 -4.58105469 96.296875 C-4.57016964 87.38433766 -4.57369503 78.47189181 -4.5847075 69.55935669 C-4.59377298 61.91772679 -4.59506928 54.2761245 -4.58983016 46.63449097 C-4.58670638 42.06588236 -4.58631226 37.49731681 -4.59290314 32.92871094 C-4.59866526 28.63433533 -4.59470062 24.3400781 -4.58311462 20.04571533 C-4.58046194 18.46624956 -4.58124344 16.88677389 -4.58563995 15.30731201 C-4.59107304 13.15786353 -4.58428898 11.00879877 -4.57427979 8.859375 C-4.57352573 7.65442383 -4.57277168 6.44947266 -4.57199478 5.20800781 C-4.25334038 1.66070815 -3.55114306 0.62174895 0 0 Z " fill="#9EAACD" transform="translate(263.3203125,321.59375)"/>
<path d="M0 0 C2.3828125 0.375 2.3828125 0.375 4.3828125 2.375 C4.63728809 5.19237518 4.63728809 5.19237518 4.64350891 8.86608887 C4.64924723 9.87721465 4.64924723 9.87721465 4.65510148 10.90876722 C4.66545931 13.17818869 4.66143418 15.44735846 4.6574707 17.71679688 C4.66181561 19.33944433 4.66699802 20.96208973 4.67295837 22.58473206 C4.68638254 26.99991936 4.68692333 31.41502125 4.68439507 35.83022499 C4.6833278 39.51091503 4.68820238 43.19158761 4.6930005 46.87227392 C4.70410722 55.55206951 4.70452636 64.23182183 4.69848633 72.91162109 C4.69244254 81.87871994 4.70476514 90.84566203 4.7260564 99.81273413 C4.74364308 107.50107499 4.74967846 115.18936583 4.74641865 122.87772608 C4.74460116 127.47430842 4.74728822 132.07077893 4.76113319 136.66734314 C4.7736596 140.98802295 4.77181704 145.30845742 4.75872231 149.62913322 C4.7563457 151.21827716 4.75912972 152.8074381 4.76734543 154.39656258 C4.77772374 156.55930148 4.76978565 158.72120341 4.7570343 160.88391113 C4.75720204 162.09623665 4.75736979 163.30856216 4.75754261 164.55762482 C4.63388167 165.48735863 4.51022074 166.41709244 4.3828125 167.375 C1.3828125 169.375 1.3828125 169.375 -0.4921875 169.24609375 C-3.32807031 168.08359032 -5.27787133 166.41826027 -7.6171875 164.4375 C-8.58785156 163.62796875 -9.55851562 162.8184375 -10.55859375 161.984375 C-12.58661401 160.26551603 -14.58592181 158.5224117 -16.58203125 156.765625 C-27.90811799 146.94273768 -39.81818175 140.7946261 -54.9296875 139.9375 C-59.88276752 139.61028875 -62.85920041 138.84391116 -66.6171875 135.375 C-69.61289316 131.30136834 -70.08216355 128.08806097 -70.34765625 123.08203125 C-70.38807541 122.38238754 -70.42849457 121.68274384 -70.47013855 120.9618988 C-70.59619721 118.70426299 -70.70173204 116.44629859 -70.8046875 114.1875 C-70.88259826 112.63962942 -70.96088671 111.0917778 -71.03955078 109.54394531 C-71.22355651 105.80984198 -71.38634334 102.07524125 -71.53717041 98.33966064 C-71.60808525 96.59848774 -71.68517969 94.85756894 -71.76318359 93.11669922 C-71.867268 90.61911252 -71.94091592 88.12414658 -71.9921875 85.625 C-72.02054688 84.33078125 -72.04890625 83.0365625 -72.078125 81.703125 C-71.32385918 76.25707007 -68.21597122 72.67791357 -64.3046875 69 C-61.19003699 65.97792934 -58.32692206 62.81914562 -55.4921875 59.53515625 C-51.16877298 54.55422244 -46.7093066 49.69177619 -42.2890625 44.796875 C-38.91333728 41.05372391 -35.54581315 37.30703528 -32.2421875 33.5 C-29.25802011 30.07167746 -26.19528062 26.71881285 -23.1171875 23.375 C-20.01943056 20.00946465 -16.9366264 16.63481439 -13.9296875 13.1875 C-13.39214844 12.57519531 -12.85460937 11.96289062 -12.30078125 11.33203125 C-11.04196478 9.86876663 -9.80906135 8.38313804 -8.58984375 6.88671875 C-7.89761719 6.05785156 -7.20539063 5.22898437 -6.4921875 4.375 C-5.87085938 3.611875 -5.24953125 2.84875 -4.609375 2.0625 C-2.6171875 0.375 -2.6171875 0.375 0 0 Z " fill="#9EAACD" transform="translate(245.6171875,321.625)"/>
<path d="M0 0 C11.70989399 5.06527614 25.02510731 12.50140476 30.25 24.875 C30.32421875 27.4609375 30.32421875 27.4609375 29.25 29.875 C26.93345998 31.16334311 24.97410235 32.02691853 22.5 32.875 C21.48824707 33.25217163 21.48824707 33.25217163 20.45605469 33.63696289 C18.39403411 34.40308433 16.32424777 35.14270645 14.25 35.875 C0.62419335 40.72615215 -11.57486802 46.35466932 -18.9375 59.4375 C-20.44813104 62.65635516 -21.30311629 65.93065039 -22.140625 69.38061523 C-24.70443731 79.93695737 -28.53710794 85.53561726 -37.265625 91.96484375 C-40.05403859 94.10876552 -42.60584172 96.42410145 -45.1875 98.8125 C-48.78257893 102.10504774 -52.3909667 105.3651875 -56.125 108.5 C-56.89585938 109.15226562 -57.66671875 109.80453125 -58.4609375 110.4765625 C-61.19041372 112.14405821 -62.60632231 112.39723962 -65.75 111.875 C-68.53096677 110.1734039 -68.79245968 108.72040322 -69.6640625 105.546875 C-70.01597656 103.60554688 -70.01597656 103.60554688 -70.375 101.625 C-70.61476563 100.34109375 -70.85453125 99.0571875 -71.1015625 97.734375 C-71.42253906 95.82398438 -71.42253906 95.82398438 -71.75 93.875 C-71.93820313 92.75609375 -72.12640625 91.6371875 -72.3203125 90.484375 C-74.91101754 68.72245265 -71.14336953 46.29546081 -58.75 27.875 C-55.28902004 23.64431532 -51.61091159 19.74133422 -47.75 15.875 C-47.0178125 15.13121094 -46.285625 14.38742188 -45.53125 13.62109375 C-39.37087529 7.74804995 -32.21622607 3.83591196 -24.75 -0.125 C-24.08484375 -0.52074219 -23.4196875 -0.91648437 -22.734375 -1.32421875 C-15.67067142 -4.17472905 -6.8942118 -2.54341621 0 0 Z " fill="#9EAACD" transform="translate(137.75,115.125)"/>
<path d="M0 0 C0.78632813 0.42410156 1.57265625 0.84820312 2.3828125 1.28515625 C22.56850568 12.64356354 35.70526067 29.87921564 42 52 C46.23810714 68.41989154 45.9474615 88.77323407 41 105 C40.78085937 105.76699219 40.56171875 106.53398437 40.3359375 107.32421875 C39 109 39 109 35.734375 110.0546875 C31.75121227 109.99635667 30.48018221 109.38249819 27.67749023 106.63452148 C26.97088257 105.88730835 26.97088257 105.88730835 26.25 105.125 C25.20695307 104.09509175 24.16132909 103.06778758 23.11328125 102.04296875 C22.59330566 101.52653809 22.07333008 101.01010742 21.53759766 100.47802734 C19.28756951 98.31517081 16.87714848 96.38154035 14.4375 94.4375 C-3.93118588 79.53460391 -3.93118588 79.53460391 -5.9375 67.5625 C-7.62727537 57.58737444 -12.53346688 49.91449645 -20.79296875 44 C-28.9377351 39.01777734 -37.50753694 35.76069443 -46.53540039 32.70117188 C-47.44410889 32.39115234 -48.35281738 32.08113281 -49.2890625 31.76171875 C-50.10068848 31.49319092 -50.91231445 31.22466309 -51.74853516 30.94799805 C-54.16211103 29.9317418 -55.97634173 28.64911058 -58 27 C-57.16993145 18.28428022 -51.45580129 12.43591086 -45 7 C-41.13582747 4.37598202 -37.15164306 2.13528517 -33 0 C-32.175 -0.43699219 -31.35 -0.87398438 -30.5 -1.32421875 C-20.48106564 -6.02059423 -9.48377618 -5.57562666 0 0 Z " fill="#9EAACD" transform="translate(400,117)"/>
<path d="M0 0 C3.57461031 3.17386925 4.14777314 7.75475643 5.125 12.25 C5.37830078 13.33861328 5.37830078 13.33861328 5.63671875 14.44921875 C7.80240329 24.01574652 8.1558347 33.14748129 8.125 42.9375 C8.13080078 44.77344727 8.13080078 44.77344727 8.13671875 46.64648438 C8.13120869 51.76808111 8.10820126 56.89362643 7.7421875 62.00390625 C7.69690918 62.64271729 7.65163086 63.28152832 7.60498047 63.93969727 C6.45221309 67.86552613 4.77552608 71.0209619 1.09500122 73.0504303 C-1.29412667 74.00297442 -3.69436629 74.80817396 -6.1484375 75.578125 C-7.03858551 75.8756366 -7.92873352 76.17314819 -8.84585571 76.47967529 C-11.68282456 77.42287742 -14.52827036 78.33673445 -17.375 79.25 C-19.28188405 79.87828721 -21.18814256 80.50847638 -23.09375 81.140625 C-27.36132936 82.55227108 -31.6343094 83.94570906 -35.91400146 85.32019043 C-37.7363044 85.9140638 -39.548149 86.53983733 -41.35791016 87.17089844 C-44.73058914 88.22926268 -47.4878054 88.33133911 -51 88 C-53.12413859 86.43446994 -53.89854315 85.54199768 -54.38768005 82.92895508 C-54.39308304 82.13384521 -54.39848602 81.33873535 -54.40405273 80.51953125 C-54.41673691 79.61428711 -54.42942108 78.70904297 -54.44248962 77.77636719 C-54.43955399 76.79829102 -54.43661835 75.82021484 -54.43359375 74.8125 C-54.4388356 73.79961914 -54.44407745 72.78673828 -54.44947815 71.74316406 C-54.45590766 69.59457312 -54.4545494 67.44594702 -54.44604492 65.29736328 C-54.43760374 62.04003309 -54.46617213 58.78449749 -54.49804688 55.52734375 C-54.49966092 53.43489635 -54.49907747 51.34244589 -54.49609375 49.25 C-54.50732773 48.28811768 -54.51856171 47.32623535 -54.53013611 46.33520508 C-54.4166528 35.07922019 -50.32748148 25.48827063 -43 17 C-37.15207831 11.32895306 -30.52297999 7.94929855 -23 5 C-22.32243652 4.7323584 -21.64487305 4.4647168 -20.94677734 4.18896484 C-18.70121958 3.31280648 -16.44698651 2.46453621 -14.1875 1.625 C-13.11145508 1.21205688 -13.11145508 1.21205688 -12.01367188 0.79077148 C-7.69191314 -0.7594027 -4.51580361 -1.54262488 0 0 Z " fill="#9EAACD" transform="translate(174,153)"/>
<path d="M0 0 C4.10471232 1.11457003 8.03460639 2.59380841 12 4.125 C13.0415625 4.50398437 14.083125 4.88296875 15.15625 5.2734375 C28.27968935 10.24443726 37.0291911 18.09137329 43.0546875 30.80078125 C44.56930124 34.32444876 45.134073 37.07783561 45.17700195 40.8828125 C45.19625481 42.36950439 45.19625481 42.36950439 45.21589661 43.88623047 C45.22328354 44.95502441 45.23067047 46.02381836 45.23828125 47.125 C45.246353 48.22344238 45.25442474 49.32188477 45.26274109 50.45361328 C45.27657324 52.77700219 45.28729928 55.10041136 45.29516602 57.42382812 C45.31243245 60.98606367 45.35633338 64.54738395 45.40039062 68.109375 C45.41051284 70.3645765 45.41903041 72.61978589 45.42578125 74.875 C45.44328934 75.94379395 45.46079742 77.01258789 45.47883606 78.11376953 C45.47591049 79.10489746 45.47298492 80.09602539 45.4699707 81.1171875 C45.47583694 81.98972168 45.48170319 82.86225586 45.48774719 83.76123047 C45 86 45 86 43.16542053 87.81219482 C39.31045977 89.92676901 35.7695084 88.50289848 31.71624756 87.35095215 C29.08522748 86.5393976 26.47601657 85.67713085 23.8671875 84.796875 C22.91232452 84.47720764 21.95746155 84.15754028 20.97366333 83.82818604 C18.96389824 83.15231328 16.95527805 82.47302752 14.94775391 81.79052734 C11.88281239 80.75264551 8.81095489 79.73738055 5.73828125 78.72265625 C3.78078404 78.06127333 1.82373658 77.3985575 -0.1328125 76.734375 C-1.04749298 76.43521179 -1.96217346 76.13604858 -2.90457153 75.82781982 C-8.14188153 74.01657653 -11.50205415 72.35186522 -15 68 C-21.94650043 50.17944194 -17.17948031 21.85841649 -12 4 C-8.97815175 -0.76522225 -5.21228428 -0.65036581 0 0 Z " fill="#9EAACD" transform="translate(344,153)"/>
<path d="M0 0 C3.48419995 0.35231054 4.0595705 1.06669306 6.515625 3.81640625 C7.4420427 5.05404635 8.3526178 6.30364816 9.25 7.5625 C9.73090088 8.22854248 10.21180176 8.89458496 10.70727539 9.58081055 C15.6729272 16.65160153 19.44761358 24.14424762 23 32 C23.61294922 33.32064453 23.61294922 33.32064453 24.23828125 34.66796875 C30.53946174 49.19231142 31.92509197 64.58546149 33.20898438 80.16015625 C34.49510327 95.42839338 37.68461483 108.51317465 43.828125 122.625 C45.01405055 126.0404656 45.39553399 128.41937651 45 132 C43 134 43 134 40.765625 134.4609375 C36.74990218 133.79165036 34.55271761 131.38031962 31.75 128.625 C31.17789795 128.07626221 30.6057959 127.52752441 30.01635742 126.9621582 C28.32650667 125.32497443 26.65958551 123.66780383 25 122 C24.17628906 121.17628906 23.35257812 120.35257812 22.50390625 119.50390625 C8.42430562 104.62119114 -3.31871162 85.37343054 -3.16796875 64.48046875 C-3 62 -3 62 -2.49461365 60.19265747 C-1.89801784 57.54790584 -1.89537324 55.14886845 -1.91821289 52.43701172 C-1.9247438 51.32260712 -1.93127472 50.20820251 -1.93800354 49.06002808 C-1.95515663 47.26300949 -1.95515663 47.26300949 -1.97265625 45.4296875 C-1.98529658 42.89974092 -1.99765797 40.36979293 -2.00976562 37.83984375 C-2.0346533 33.84549495 -2.06229508 29.85121667 -2.09594727 25.85693359 C-2.12602018 22.00617999 -2.14388015 18.15552055 -2.16015625 14.3046875 C-2.18034569 12.50159622 -2.18034569 12.50159622 -2.20094299 10.66207886 C-2.20601112 8.99992844 -2.20601112 8.99992844 -2.21118164 7.30419922 C-2.21863907 6.32587128 -2.2260965 5.34754333 -2.23377991 4.33956909 C-2 2 -2 2 0 0 Z " fill="#9DA9CC" transform="translate(396,211)"/>
<path d="M0 0 C1.32 0.66 2.64 1.32 4 2 C3.99777939 2.6064183 3.99555878 3.21283661 3.99327087 3.83763123 C3.97105151 10.18105477 3.95602424 16.52446714 3.94506836 22.86791992 C3.94005694 25.23153127 3.93324604 27.59513954 3.92456055 29.95874023 C3.91235474 33.36703248 3.90673963 36.77528354 3.90234375 40.18359375 C3.89718246 41.23083115 3.89202118 42.27806854 3.88670349 43.35704041 C3.88630378 48.65095731 4.07562235 53.81148874 4.75798035 59.06367493 C6.1908625 70.52772587 5.10459708 79.58877693 0 90 C-0.45761719 90.94488281 -0.91523437 91.88976562 -1.38671875 92.86328125 C-8.05414966 105.77800359 -17.48839828 117.02745477 -28 127 C-28.94166016 127.91652344 -28.94166016 127.91652344 -29.90234375 128.8515625 C-30.59457031 129.49867188 -31.28679687 130.14578125 -32 130.8125 C-32.639375 131.41707031 -33.27875 132.02164063 -33.9375 132.64453125 C-36.50808425 134.33391143 -37.97915696 134.41238482 -41 134 C-41.66 133.34 -42.32 132.68 -43 132 C-42.68818462 126.19429456 -40.73748236 121.24309463 -38.625 115.875 C-33.88422943 103.42596282 -31.14403894 91.24736716 -30.7097168 77.89697266 C-30.39846287 68.63111378 -29.37687286 59.99357297 -27 51 C-26.73445313 49.8759375 -26.46890625 48.751875 -26.1953125 47.59375 C-21.88422332 30.65460313 -12.41904869 12.41904869 0 0 Z " fill="#9DA9CC" transform="translate(111,211)"/>
<path d="M0 0 C0.66 0.66 1.32 1.32 2 2 C1.66395872 7.02141678 -0.88511552 11.72849742 -2.8125 16.3125 C-6.93638168 26.38842302 -9.9777242 36.29968627 -11.65625 47.08984375 C-13.25627204 57.22692847 -16.50234548 65.23966691 -22.22875977 73.84692383 C-25.35688126 78.62879183 -27.34337201 83.29945439 -29.1875 88.6875 C-32.28642223 97.13743249 -36.26368612 104.84673648 -43 111 C-46.1953125 111.90625 -46.1953125 111.90625 -49 112 C-50.8125 110.9375 -50.8125 110.9375 -52 109 C-57.42871496 83.60272512 -49.83569411 54.40665181 -36.21191406 32.84765625 C-29.43146278 22.51033648 -13.46523542 -1.71092925 0 0 Z " fill="#9DA9CC" transform="translate(86,229)"/>
<path d="M0 0 C9.59661171 0.91133291 20.39883539 15.30612846 26.71484375 22.2578125 C29.32147071 25.45601438 31.56600461 28.73950592 33.71484375 32.2578125 C34.58496094 33.60359375 34.58496094 33.60359375 35.47265625 34.9765625 C40.45589044 43.00151106 43.86974564 51.29043064 46.71484375 60.2578125 C47.03461182 61.24201172 47.03461182 61.24201172 47.36083984 62.24609375 C50.62215653 72.73610205 51.12554647 83.22458129 51.21484375 94.1328125 C51.22537781 94.80282288 51.23591187 95.47283325 51.24676514 96.16314697 C51.27020398 98.08778861 51.25875816 100.01275731 51.24609375 101.9375 C51.24158203 103.05882324 51.23707031 104.18014648 51.23242188 105.33544922 C50.60316064 108.8884006 49.56417927 110.10500306 46.71484375 112.2578125 C43.55201215 112.24300986 42.13715772 111.60038318 39.6875 109.61328125 C33.10126051 102.13810146 28.95951751 94.10756484 25.77734375 84.6953125 C24.03244688 79.62854083 21.51455695 75.46966611 18.49609375 71.05859375 C14.39876593 64.61608487 12.07975177 58.69843781 10.71484375 51.1953125 C10.37897504 49.50467512 10.04040271 47.81457274 9.69921875 46.125 C9.53357422 45.29709961 9.36792969 44.46919922 9.19726562 43.61621094 C7.0041811 32.89495766 3.65476091 23.07993408 -0.64355469 13.04516602 C-0.98418945 12.23619873 -1.32482422 11.42723145 -1.67578125 10.59375 C-1.98547852 9.87751465 -2.29517578 9.1612793 -2.61425781 8.42333984 C-3.38952903 5.92091783 -3.47059454 3.863387 -3.28515625 1.2578125 C-2.28515625 0.2578125 -2.28515625 0.2578125 0 0 Z " fill="#9DA9CC" transform="translate(425.28515625,228.7421875)"/>
<path d="M0 0 C0.66 0 1.32 0 2 0 C6.02974761 17.74562806 9.58766381 35.5144824 12.375 53.5 C12.50183167 54.30172638 12.62866333 55.10345276 12.75933838 55.92947388 C13.59962635 61.27586951 14.3555701 66.62638388 15 72 C15.09510864 72.78874512 15.19021729 73.57749023 15.28820801 74.39013672 C15.55211686 76.72697067 15.77222591 79.063527 15.9765625 81.40625 C16.05619232 82.1122937 16.13582214 82.8183374 16.21786499 83.54577637 C16.36181641 85.54101562 16.36181641 85.54101562 16 89 C13.15280777 92.04721418 11.6985314 92.89941781 7.5546875 93.49609375 C6.34039062 93.47675781 5.12609375 93.45742188 3.875 93.4375 C2.65554687 93.43621094 1.43609375 93.43492187 0.1796875 93.43359375 C-3 93 -3 93 -4.82421875 91.9296875 C-6.59392402 89.02525426 -7.13318367 85.9936281 -7.6875 82.6875 C-7.8127002 81.94693359 -7.93790039 81.20636719 -8.06689453 80.44335938 C-8.99743017 74.30055812 -9.32088021 68.20846938 -9.375 62 C-9.38877686 61.16041748 -9.40255371 60.32083496 -9.41674805 59.45581055 C-9.36086907 51.5798548 -7.88901185 43.98471345 -6.42700195 36.27667236 C-5.71697392 32.49097258 -5.05831684 28.69637292 -4.39453125 24.90234375 C-4.13110613 23.4081596 -3.86743517 21.91401877 -3.60351562 20.41992188 C-3.47372314 19.68443115 -3.34393066 18.94894043 -3.21020508 18.19116211 C-2.14013672 12.12744141 -1.07006836 6.0637207 0 0 Z " fill="#9CA8CB" transform="translate(154,367)"/>
<path d="M0 0 C1.44153792 2.66649312 2.33676048 4.99974664 2.85375977 7.9831543 C2.99052628 8.75463303 3.12729279 9.52611176 3.26820374 10.32096863 C3.40786057 11.14704117 3.5475174 11.97311371 3.69140625 12.82421875 C3.841577 13.68505569 3.99174774 14.54589264 4.14646912 15.43281555 C4.46284619 17.25376794 4.77617537 19.07525215 5.08666992 20.8972168 C5.55802159 23.66123848 6.03890317 26.42346611 6.52148438 29.18554688 C6.82869239 30.96083941 7.13535041 32.73622722 7.44140625 34.51171875 C7.65392784 35.73564583 7.65392784 35.73564583 7.8707428 36.98429871 C9.31943597 45.51982309 10.19605753 53.90228248 10.1875 62.5625 C10.1862915 63.85317383 10.1862915 63.85317383 10.18505859 65.16992188 C9.98090297 86.86646061 9.98090297 86.86646061 6 93 C3.06077067 94.46961466 0.39591028 94.20919862 -2.875 94.25 C-4.72738281 94.28867187 -4.72738281 94.28867187 -6.6171875 94.328125 C-10.29535289 93.97135145 -11.43184909 93.56538089 -14 91 C-15.59088877 82.50864195 -13.44664717 72.78236223 -12.3125 64.3125 C-12.22452148 63.64246948 -12.13654297 62.97243896 -12.04589844 62.28210449 C-10.42785107 50.0227859 -8.220504 37.9232899 -5.61132812 25.83642578 C-5.00371871 23.017254 -4.41323905 20.19501281 -3.828125 17.37109375 C-1.2021995 4.72860789 -1.2021995 4.72860789 0 0 Z " fill="#9DA9CC" transform="translate(354,366)"/>
</svg>
